<?xml version="1.0" standalone="no"?><!DOCTYPE svg PUBLIC "-//W3C//DTD SVG 1.1//EN" "http://www.w3.org/Graphics/SVG/1.1/DTD/svg11.dtd"><svg t="1584430559600" class="icon" viewBox="0 0 1024 1024" version="1.1" xmlns="http://www.w3.org/2000/svg" p-id="19407" xmlns:xlink="http://www.w3.org/1999/xlink" width="400" height="400"><defs><style type="text/css"></style></defs><path d="M924.549 337.707c-22.553-53.321-54.833-101.202-95.943-142.312-41.11-41.11-88.991-73.39-142.313-95.943-55.221-23.357-113.861-35.2-174.293-35.2S392.928 76.095 337.707 99.451c-53.321 22.553-101.202 54.833-142.312 95.943-41.11 41.11-73.39 88.991-95.943 142.312-23.357 55.222-35.2 113.862-35.2 174.294s11.843 119.072 35.199 174.293c22.553 53.321 54.833 101.202 95.943 142.313 41.11 41.11 88.991 73.391 142.312 95.943 55.221 23.356 113.862 35.199 174.293 35.199s119.072-11.843 174.293-35.199c53.321-22.553 101.202-54.833 142.313-95.943s73.391-88.991 95.943-142.313c23.356-55.221 35.199-113.861 35.199-174.293s-11.842-119.072-35.198-174.293zM512 896.252c-211.877 0-384.252-172.375-384.252-384.252S300.123 127.748 512 127.748 896.252 300.123 896.252 512 723.877 896.252 512 896.252z" p-id="19408"></path><path d="M740 480H544V284c0-15.464-14.327-28-32-28s-32 12.536-32 28v196H284c-15.464 0-28 14.327-28 32s12.536 32 28 32h196v196c0 15.464 14.327 28 32 28s32-12.536 32-28V544h196c15.464 0 28-14.327 28-32s-12.536-32-28-32z" p-id="19409"></path></svg>