<svg xmlns="http://www.w3.org/2000/svg" width="20" height="20" viewBox="0 0 20 20">
  <defs>
    <style>
      .cls-1 {
        fill: #ccccd2;
      }
    </style>
  </defs>
  <path id="人脸识别" class="cls-1" d="M74.389,56.889h-2.25a.25.25,0,0,0-.25.25v.75a.25.25,0,0,0,.25.25h2.25a1.25,1.25,0,0,1,1.25,1.25v2.25a.25.25,0,0,0,.25.25h.75a.25.25,0,0,0,.25-.25v-2.25A2.5,2.5,0,0,0,74.389,56.889Zm-15,0a2.5,2.5,0,0,0-2.5,2.5v2.25a.25.25,0,0,0,.25.25h.75a.25.25,0,0,0,.25-.25v-2.25a1.25,1.25,0,0,1,1.25-1.25h2.25a.25.25,0,0,0,.25-.25v-.75a.25.25,0,0,0-.25-.25Zm16.25,15.25v2.25a1.25,1.25,0,0,1-1.25,1.25h-2.25a.25.25,0,0,0-.25.25v.75a.25.25,0,0,0,.25.25h2.25a2.5,2.5,0,0,0,2.5-2.5v-2.25a.25.25,0,0,0-.25-.25h-.75A.25.25,0,0,0,75.639,72.139Zm-16.25,3.5a1.25,1.25,0,0,1-1.25-1.25v-2.25a.25.25,0,0,0-.25-.25h-.75a.25.25,0,0,0-.25.25v2.25a2.5,2.5,0,0,0,2.5,2.5h2.25a.25.25,0,0,0,.25-.25v-.75a.25.25,0,0,0-.25-.25Zm7.5-14.375a2.446,2.446,0,0,1,2.369,1.8,2.451,2.451,0,1,1-4.734,0,2.446,2.446,0,0,1,2.365-1.8m1.485,6.817a4.563,4.563,0,0,1,3,3.229l.01.044.015.042a.856.856,0,0,1-.813,1.119h-7.4a.856.856,0,0,1-.812-1.119l.015-.042.01-.044a4.552,4.552,0,0,1,3-3.229m1.485-8.067a3.7,3.7,0,0,0-1.875,6.875,5.8,5.8,0,0,0-3.825,4.121,2.106,2.106,0,0,0,2,2.754h7.4a2.106,2.106,0,0,0,2-2.754,5.813,5.813,0,0,0-3.823-4.121,3.7,3.7,0,0,0-1.875-6.875Z" transform="translate(-56.889 -56.889)"/>
</svg>
