<svg xmlns="http://www.w3.org/2000/svg" width="20" height="20" viewBox="0 0 20 20">
  <defs>
    <style>
      .cls-1 {
        fill: none;
      }

      .cls-2 {
        fill: #ccccd2;
      }
    </style>
  </defs>
  <g id="技能介绍" transform="translate(3)">
    <rect id="矩形_162" data-name="矩形 162" class="cls-1" width="20" height="20" transform="translate(-3)"/>
    <g id="技能介绍-2" data-name="技能介绍">
      <path id="路径_45" data-name="路径 45" class="cls-2" d="M213.7,58.193a5.7,5.7,0,1,1-5.7,5.7,5.7,5.7,0,0,1,5.7-5.7m0-1.3a7,7,0,1,0,7,7,7,7,0,0,0-7-7Z" transform="translate(-206.696 -56.889)"/>
      <path id="路径_46" data-name="路径 46" class="cls-2" d="M337.549,191.733v4.437l-1.163-.809a1.837,1.837,0,0,0-2.106,0l-1.163.809v-4.437h4.431m.812-1.244h-6.054a.529.529,0,0,0-.5.56v6.677a.529.529,0,0,0,.5.56l2.764-1.928a.438.438,0,0,1,.263-.083.4.4,0,0,1,.263.083l2.764,1.928a.529.529,0,0,0,.5-.56v-6.739a.476.476,0,0,0-.5-.5Zm-.855-1.472a.647.647,0,0,1-.329-.083l-1.865-.975-1.865.975a.663.663,0,0,1-.7-.041.612.612,0,0,1-.263-.6l.373-2.115-1.535-1.493a.565.565,0,0,1-.154-.622.706.706,0,0,1,.526-.415l2.084-.29.943-1.908a.651.651,0,0,1,.592-.353.691.691,0,0,1,.592.353l.943,1.908,2.084.311a.665.665,0,0,1,.526.415.557.557,0,0,1-.154.622l-1.535,1.493.373,2.115a.6.6,0,0,1-.263.6.771.771,0,0,1-.373.1Zm-2.194-2.385a.647.647,0,0,1,.329.083l.987.518-.2-1.161a.571.571,0,0,1,.175-.539l.877-.85-1.185-.166a.728.728,0,0,1-.5-.352l-.483-.975-.5,1a.686.686,0,0,1-.5.352l-1.185.166.877.85a.556.556,0,0,1,.175.539l-.175,1.14.987-.518A.647.647,0,0,1,335.312,186.632Z" transform="translate(-328.127 -178.285)"/>
    </g>
  </g>
</svg>
