<svg xmlns="http://www.w3.org/2000/svg" width="64" height="64" viewBox="0 0 64 64">
  <defs>
    <style>
      .cls-1 {
        fill: #313348;
        stroke: #707070;
      }

      .cls-2 {
        fill: #1089ff;
      }

      .cls-3 {
        stroke: none;
      }

      .cls-4 {
        fill: none;
      }
    </style>
  </defs>
  <g id="照相机" transform="translate(-927 -134)">
    <g id="椭圆_16" data-name="椭圆 16" class="cls-1" transform="translate(927.889 134.983)">
      <circle class="cls-3" cx="31.064" cy="31.064" r="31.064"/>
      <circle class="cls-4" cx="31.064" cy="31.064" r="30.564"/>
    </g>
    <path id="路径_62" data-name="路径 62" class="cls-2" d="M32,64A32,32,0,1,1,64,32,32,32,0,0,1,32,64ZM32,2A30,30,0,1,0,62,32,30,30,0,0,0,32,2ZM44,44H20a4,4,0,0,1-4-4V28a4,4,0,0,1,4-4h5V23a4,4,0,0,1,4-4h6a4,4,0,0,1,4,4v1h5a4,4,0,0,1,4,4V40A4,4,0,0,1,44,44ZM37,23a2,2,0,0,0-2-2H29a2,2,0,0,0-2,2v1H37Zm9,5a2,2,0,0,0-2-2H20a2,2,0,0,0-2,2V40a2,2,0,0,0,2,2H44a2,2,0,0,0,2-2Zm-3,2a1,1,0,1,1,1-1A1,1,0,0,1,43,30ZM32,40a6,6,0,1,1,6-6A6,6,0,0,1,32,40Zm0-10a4,4,0,1,0,4,4A4,4,0,0,0,32,30Z" transform="translate(927 134)"/>
  </g>
</svg>
