<svg xmlns="http://www.w3.org/2000/svg" width="20" height="20" viewBox="0 0 20 20">
  <defs>
    <style>
      .cls-1 {
        fill: none;
      }

      .cls-2 {
        fill: #ccccd2;
      }
    </style>
  </defs>
  <g id="地址" transform="translate(-955 -42)">
    <rect id="矩形_359" data-name="矩形 359" class="cls-1" width="20" height="20" transform="translate(955 42)"/>
    <path id="路径_47" data-name="路径 47" class="cls-2" d="M215.5,116c-1.247.007-7.5-9.364-7.5-12.5a7.5,7.5,0,1,1,15,0C223,106.593,216.727,116.006,215.5,116Zm0-18.749a6.25,6.25,0,0,0-6.25,6.25c0,2.613,5.211,10.63,6.25,10.624,1.023.005,6.25-8.048,6.25-10.624A6.25,6.25,0,0,0,215.5,97.25Zm0,9.375a3.125,3.125,0,1,1,3.125-3.125A3.125,3.125,0,0,1,215.5,106.624Zm0-5a1.875,1.875,0,1,0,1.875,1.875A1.875,1.875,0,0,0,215.5,101.625Z" transform="translate(750 -53.999)"/>
  </g>
</svg>
