<svg xmlns="http://www.w3.org/2000/svg" width="20" height="20" viewBox="0 0 20 20">
  <defs>
    <style>
      .cls-1 {
        fill: none;
      }

      .cls-2 {
        fill: #ccccd2;
      }
    </style>
  </defs>
  <g id="联系人" transform="translate(-1028 -42)">
    <rect id="矩形_360" data-name="矩形 360" class="cls-1" width="20" height="20" transform="translate(1028 42)"/>
    <g id="组_654" data-name="组 654" transform="translate(853.619 36.8)">
      <path id="路径_107" data-name="路径 107" class="cls-2" d="M461.516,819.1a1.016,1.016,0,1,0,1.016,1.016A1.017,1.017,0,0,0,461.516,819.1Z" transform="translate(-277.024 -797.841)"/>
      <path id="路径_108" data-name="路径 108" class="cls-2" d="M190.625,5.66a1.56,1.56,0,0,0-1.109-.46H179.469A1.571,1.571,0,0,0,177.9,6.769V23.631a1.571,1.571,0,0,0,1.569,1.569h10.047a1.571,1.571,0,0,0,1.569-1.569V6.769A1.552,1.552,0,0,0,190.625,5.66ZM178.993,20.547h11v3.084a.478.478,0,0,1-.476.476H179.469a.476.476,0,0,1-.476-.476Zm.476-14.254h10.047a.476.476,0,0,1,.476.476v12.6h-11V6.769A.476.476,0,0,1,179.469,6.293Z"/>
    </g>
  </g>
</svg>
