<svg xmlns="http://www.w3.org/2000/svg" width="20" height="20" viewBox="0 0 20 20">
  <defs>
    <style>
      .cls-1 {
        fill: none;
      }

      .cls-2 {
        fill: #ccccd2;
      }
    </style>
  </defs>
  <g id="客服" transform="translate(-1175 -42)">
    <rect id="矩形_362" data-name="矩形 362" class="cls-1" width="20" height="20" transform="translate(1175 42)"/>
    <path id="路径_106" data-name="路径 106" class="cls-2" d="M146.333,135.812h-.028a8.321,8.321,0,0,0-16.611,0h-.056A1.642,1.642,0,0,0,128,137.459v3.376a1.675,1.675,0,0,0,1.667,1.674h1.111a1.675,1.675,0,0,0,1.667-1.674v-3.348a1.665,1.665,0,0,0-1.639-1.669,7.213,7.213,0,0,1,14.389,0,1.665,1.665,0,0,0-1.639,1.669v3.348a1.68,1.68,0,0,0,.994,1.529,4.121,4.121,0,0,1-3.878,2.919,1.669,1.669,0,0,0-1.561-1.1h-2.222a1.674,1.674,0,0,0,0,3.348h2.222a1.669,1.669,0,0,0,1.572-1.138,5.264,5.264,0,0,0,4.978-3.884h.672A1.675,1.675,0,0,0,148,140.835v-3.348a1.675,1.675,0,0,0-1.667-1.674Zm-15,1.674v3.348a.558.558,0,0,1-.556.558h-1.111a.558.558,0,0,1-.556-.558v-3.376a.532.532,0,0,1,.528-.53h1.139A.558.558,0,0,1,131.333,137.487Zm7.778,8.929h-2.222a.558.558,0,0,1,0-1.116h2.222a.558.558,0,0,1,0,1.116Zm7.778-5.58a.558.558,0,0,1-.556.558h-1.111a.558.558,0,0,1-.556-.558v-3.348a.558.558,0,0,1,.556-.558h1.111a.558.558,0,0,1,.556.558Z" transform="translate(1047 -86)"/>
  </g>
</svg>
