<svg xmlns="http://www.w3.org/2000/svg" width="20" height="20" viewBox="0 0 20 20">
  <defs>
    <style>
      .cls-1 {
        fill: none;
      }

      .cls-2 {
        fill: #ccccd2;
      }
    </style>
  </defs>
  <g id="简介" transform="translate(-1249 -42)">
    <rect id="矩形_363" data-name="矩形 363" class="cls-1" width="20" height="20" transform="translate(1249 42)"/>
    <path id="路径_102" data-name="路径 102" class="cls-2" d="M101.385,20.577a4.75,4.75,0,0,0-.784-.036H87.717a1.906,1.906,0,0,0-1.51.779,2.516,2.516,0,0,0-.5,1.5V38.261a2.525,2.525,0,0,0,.537,1.552,1.892,1.892,0,0,0,1.473.728h12.9a4.362,4.362,0,0,0,.827-.046,1.88,1.88,0,0,0,1.109-.733,2.523,2.523,0,0,0,.5-1.493V22.85A2.23,2.23,0,0,0,101.385,20.577ZM87.238,39.167C87.3,39.216,87.268,39.191,87.238,39.167Zm14.605-.447C101.871,38.644,101.857,38.683,101.843,38.72Zm.073-.315s-.021.13-.029.165q-.02.082-.048.162l-.007.016q-.028.06-.06.119c-.013.025-.064.1-.079.126s-.053.062-.081.091-.08.074-.1.094q-.061.042-.125.079l-.026.014-.035.014a1.353,1.353,0,0,1-.172.048l-.072,0H87.684l-.073,0-.024-.006a1.205,1.205,0,0,1-.172-.052,1.263,1.263,0,0,1-.2-.126q-.046-.043-.089-.09c-.019-.02-.069-.087-.089-.111s-.044-.073-.064-.111-.05-.112-.062-.139q-.026-.081-.045-.163c-.008-.033-.014-.067-.02-.1q-.007-.083-.007-.166V22.813c0-.051,0-.1.006-.152,0-.016.005-.034.007-.046.008-.046.019-.091.031-.136.008-.03.042-.127.05-.152s.037-.075.057-.112.068-.106.08-.128c.032-.039.066-.076.1-.112.017-.018.037-.036.057-.053a1.5,1.5,0,0,1,.15-.1l.027-.014.034-.014a1.089,1.089,0,0,1,.129-.038c.015,0,.115-.015.15-.015h13.328q.047,0,.095,0l.035.006a1.263,1.263,0,0,1,.171.052c.031.016.061.033.09.05s.093.067.116.083.055.054.081.082.071.089.09.112a1.914,1.914,0,0,1,.115.215c.022.065.04.13.057.2.007.033.014.067.02.1q.007.084.007.167V38.268q0,.068-.006.136ZM89.222,32.322h7.37a.574.574,0,0,0,0-1.148h-7.37a.574.574,0,0,0,0,1.148ZM99.54,34.163H89.222a.574.574,0,0,0,0,1.147H99.54a.574.574,0,0,0,0-1.147Zm-9.757-6.182a1.1,1.1,0,0,0,.771-.324,1.115,1.115,0,0,0,0-1.562,1.08,1.08,0,0,0-1.541,0,1.116,1.116,0,0,0,0,1.562A1.1,1.1,0,0,0,89.783,27.981Zm4.422,0a1.1,1.1,0,0,0,.771-.324,1.115,1.115,0,0,0,0-1.562,1.08,1.08,0,0,0-1.541,0,1.115,1.115,0,0,0,0,1.562A1.1,1.1,0,0,0,94.2,27.981Zm4.422,0a1.1,1.1,0,0,0,.771-.324,1.117,1.117,0,0,0,0-1.562,1.081,1.081,0,0,0-1.542,0,1.116,1.116,0,0,0,0,1.562A1.1,1.1,0,0,0,98.627,27.981Z" transform="translate(1165.01 21.459)"/>
  </g>
</svg>
