<svg xmlns="http://www.w3.org/2000/svg" width="20" height="20" viewBox="0 0 20 20">
  <defs>
    <style>
      .cls-1 {
        fill: none;
      }

      .cls-2 {
        fill: #ccccd2;
      }
    </style>
  </defs>
  <g id="图片" transform="translate(-1322 -42)">
    <rect id="矩形_364" data-name="矩形 364" class="cls-1" width="20" height="20" transform="translate(1322 42)"/>
    <g id="组_653" data-name="组 653" transform="translate(1255.44 -79.241)">
      <path id="路径_103" data-name="路径 103" class="cls-2" d="M84.684,122.24H68.436a1.876,1.876,0,0,0-1.876,1.876v13.748a1.876,1.876,0,0,0,1.876,1.876H84.684a1.876,1.876,0,0,0,1.876-1.876V124.116A1.876,1.876,0,0,0,84.684,122.24Zm-16.249,1.25h16.25a.625.625,0,0,1,.625.625v7.361a7.906,7.906,0,0,0-4.848-1.941c-1.931,0-3.836,1.5-5.677,2.944-1.411,1.109-2.87,2.256-3.893,2.256a4.87,4.87,0,0,1-3.082-1.458v-9.162A.626.626,0,0,1,68.435,123.49Zm16.25,15H68.435a.625.625,0,0,1-.625-.625V134.9a5.442,5.442,0,0,0,3.082,1.088c1.456,0,3.016-1.225,4.666-2.523,1.674-1.316,3.405-2.677,4.9-2.677,2.686,0,4.817,2.365,4.838,2.389l.01-.009v4.7a.626.626,0,0,1-.625.625Z" transform="translate(0 0)"/>
      <path id="路径_104" data-name="路径 104" class="cls-2" d="M187.963,284.964a2.516,2.516,0,1,0-2.516-2.516A2.517,2.517,0,0,0,187.963,284.964Zm.009-3.776a1.253,1.253,0,1,1-1.253,1.253A1.253,1.253,0,0,1,187.972,281.187Z" transform="translate(-116.217 -154.151)"/>
    </g>
  </g>
</svg>
