<svg xmlns="http://www.w3.org/2000/svg" width="18" height="18" viewBox="0 0 18 18">
  <defs>
    <style>
      .cls-1 {
        fill: #a2a4b2;
      }
    </style>
  </defs>
  <g id="日历" transform="translate(-99 -99.8)">
    <path id="路径_36" data-name="路径 36" class="cls-1" d="M115.649,171.67h-15.3A1.351,1.351,0,0,1,99,170.322V156.348A1.351,1.351,0,0,1,100.351,155h15.3A1.351,1.351,0,0,1,117,156.348v13.974A1.351,1.351,0,0,1,115.649,171.67Zm-15.3-15.77a.45.45,0,0,0-.449.449v13.974a.45.45,0,0,0,.449.449h15.3a.45.45,0,0,0,.449-.449V156.348a.45.45,0,0,0-.449-.449Z" transform="translate(0 -53.87)"/>
    <path id="路径_37" data-name="路径 37" class="cls-1" d="M119.8,390.2h16.641v1H119.8Zm3.02,3.463h1.891v2.116H122.82Zm4.515,0h1.891v2.116h-1.891Zm4.517,0h1.891v2.116h-1.891Z" transform="translate(-20.299 -285.316)"/>
    <path id="路径_38" data-name="路径 38" class="cls-1" d="M260,685.8h1.889v2.116H260Zm4.51,0H266.4v2.116H264.51Zm4.512,0h1.889v2.116h-1.889Z" transform="translate(-157.479 -573.364)"/>
    <path id="路径_39" data-name="路径 39" class="cls-1" d="M313.4,103.461a.5.5,0,0,1-.5-.5V100.3a.5.5,0,1,1,1,0v2.663A.5.5,0,0,1,313.4,103.461Zm8.674,0a.5.5,0,0,1-.5-.5V100.3a.5.5,0,0,1,1,0v2.663A.5.5,0,0,1,322.072,103.461Z" transform="translate(-209.735)"/>
  </g>
</svg>
