<svg xmlns="http://www.w3.org/2000/svg" width="20" height="20" viewBox="0 0 20 20">
  <defs>
    <style>
      .cls-1 {
        fill: none;
      }

      .cls-2 {
        fill: #05bf98;
      }
    </style>
  </defs>
  <g id="手机" transform="translate(-245 -437)">
    <rect id="矩形_314" data-name="矩形 314" class="cls-1" width="20" height="20" transform="translate(245 437)"/>
    <path id="路径_43" data-name="路径 43" class="cls-2" d="M92.16,58.11a1.021,1.021,0,1,0,1.084,1.019A1.054,1.054,0,0,0,92.16,58.11Zm5.363-16.041H86.8a1.592,1.592,0,0,0-1.637,1.538V60.531A1.592,1.592,0,0,0,86.8,62.069H97.523a1.592,1.592,0,0,0,1.637-1.538V43.607A1.592,1.592,0,0,0,97.523,42.069ZM86.8,43.095H97.523a.531.531,0,0,1,.546.513V56.286H86.251V43.607A.531.531,0,0,1,86.8,43.095ZM97.523,61.043H86.8a.531.531,0,0,1-.546-.513V57.4H98.069v3.131A.53.53,0,0,1,97.523,61.043Z" transform="translate(162.84 394.931)"/>
  </g>
</svg>
