<svg xmlns="http://www.w3.org/2000/svg" width="72" height="60" viewBox="0 0 72 60">
  <defs>
    <style>
    </style>
  </defs>
  <path id="企业" class="cls-1" d="M69.6,119.385H67.2V87.077a9.449,9.449,0,0,0-9.6-9.231H43.2V73.231A9.449,9.449,0,0,0,33.6,64H14.4a9.449,9.449,0,0,0-9.6,9.231v46.154H2.4A2.309,2.309,0,1,0,2.4,124H69.6a2.309,2.309,0,1,0,0-4.615ZM38.4,77.846v41.538H9.6V73.231a4.724,4.724,0,0,1,4.8-4.615H33.6a4.724,4.724,0,0,1,4.8,4.615Zm24,41.538H43.2V82.462H57.6a4.724,4.724,0,0,1,4.8,4.615ZM31.2,77.846H16.8a2.309,2.309,0,1,0,0,4.615H31.2a2.309,2.309,0,1,0,0-4.615Zm0,13.846H16.8a2.309,2.309,0,1,0,0,4.615H31.2a2.309,2.309,0,1,0,0-4.615Zm0,13.846H16.8a2.309,2.309,0,1,0,0,4.615H31.2a2.309,2.309,0,1,0,0-4.615Zm24-13.846H50.4a2.309,2.309,0,1,0,0,4.615h4.8a2.309,2.309,0,1,0,0-4.615Zm0,13.846H50.4a2.309,2.309,0,1,0,0,4.615h4.8a2.309,2.309,0,1,0,0-4.615Z" transform="translate(0 -64)"/>
</svg>
