<?xml version="1.0" standalone="no"?><!DOCTYPE svg PUBLIC "-//W3C//DTD SVG 1.1//EN" "http://www.w3.org/Graphics/SVG/1.1/DTD/svg11.dtd"><svg t="1596872812635" class="icon" viewBox="0 0 1170 1024" version="1.1" xmlns="http://www.w3.org/2000/svg" p-id="24464" xmlns:xlink="http://www.w3.org/1999/xlink" width="57.12890625" height="50"><defs><style type="text/css"></style></defs><path d="M1170.285714 731.428571h-292.571428V58.514286L936.228571 0h175.542858L1170.285714 58.514286V731.428571z m-219.428571-73.142857h146.285714V87.771429l-14.628571-14.628572h-117.028572l-14.628571 14.628572V658.285714zM746.057143 585.142857H58.514286L0 526.628571V58.514286L58.514286 0h687.542857L804.571429 58.514286v468.114285L746.057143 585.142857z m-658.285714-73.142857h629.028571l14.628571-14.628571V87.771429l-14.628571-14.628572H87.771429l-14.628572 14.628572v409.6l14.628572 14.628571zM219.428571 658.285714h365.714286v73.142857H219.428571z" fill="" p-id="24465"></path><path d="M292.571429 548.571429h73.142857v146.285714H292.571429zM438.857143 548.571429h73.142857v146.285714h-73.142857zM804.571429 1024H73.142857v-219.428571h731.428572v219.428571zM146.285714 950.857143h585.142857v-73.142857H146.285714v73.142857zM987.428571 1024c-62.171429 0-109.714286-47.542857-109.714285-109.714286v-109.714285h219.428571v109.714285c0 62.171429-47.542857 109.714286-109.714286 109.714286z m-36.571428-146.285714v36.571428c0 21.942857 14.628571 36.571429 36.571428 36.571429s36.571429-14.628571 36.571429-36.571429v-36.571428h-73.142857z" fill="" p-id="24466"></path></svg>