<?xml version="1.0" standalone="no"?><!DOCTYPE svg PUBLIC "-//W3C//DTD SVG 1.1//EN" "http://www.w3.org/Graphics/SVG/1.1/DTD/svg11.dtd"><svg t="1596381629573" class="icon" viewBox="0 0 1056 1024" version="1.1" xmlns="http://www.w3.org/2000/svg" p-id="19464" xmlns:xlink="http://www.w3.org/1999/xlink" width="103.125" height="100"><defs><style type="text/css"></style></defs><path d="M1032.022426 368.748158a43.244428 43.244428 0 0 0-44.997581-31.556745 87.657624 87.657624 0 0 1-81.813782-43.828812 88.826392 88.826392 0 0 1 0-92.332697 44.413196 44.413196 0 0 0-4.675073-54.932111A525.945744 525.945744 0 0 0 654.510259 1.170521a44.99758 44.99758 0 0 0-50.257038 23.375367A87.07324 87.07324 0 0 1 525.945744 74.218541 87.07324 87.07324 0 0 1 447.638266 25.714656 44.99758 44.99758 0 0 0 397.381228 1.170521a525.945744 525.945744 0 0 0-248.947651 144.927272 44.99758 44.99758 0 0 0-5.259458 54.932111 87.657624 87.657624 0 0 1-78.307477 136.161509 43.244428 43.244428 0 0 0-44.997581 31.556745 530.036433 530.036433 0 0 0 0 287.517006 43.244428 43.244428 0 0 0 44.997581 31.556745 88.242008 88.242008 0 0 1 81.229398 43.828812 86.488856 86.488856 0 0 1 0 92.332697 44.99758 44.99758 0 0 0 5.259457 54.932111 525.945744 525.945744 0 0 0 246.025731 143.758503 44.413196 44.413196 0 0 0 50.257038-22.790982 87.07324 87.07324 0 0 1 156.614955 0 44.413196 44.413196 0 0 0 50.257038 22.790982A525.945744 525.945744 0 0 0 903.457911 877.746761a43.828812 43.828812 0 0 0 4.675073-54.932111 88.826392 88.826392 0 0 1 0-92.332697 87.657624 87.657624 0 0 1 81.813782-43.828812 43.828812 43.828812 0 0 0 44.997581-31.556745 530.036433 530.036433 0 0 0 0-287.517006z m-77.138709 233.753664a175.315248 175.315248 0 0 0-125.05821 85.904471 175.315248 175.315248 0 0 0-11.687684 151.355497 445.885114 445.885114 0 0 1-155.446186 89.995161 175.315248 175.315248 0 0 0-273.491787 0A441.21004 441.21004 0 0 1 233.753664 839.177406a175.315248 175.315248 0 0 0-11.687683-151.355497 175.315248 175.315248 0 0 0-125.058211-85.904472 438.872504 438.872504 0 0 1 0-178.821552A175.315248 175.315248 0 0 0 222.065981 337.191413 175.315248 175.315248 0 0 0 233.753664 185.835916a430.691126 430.691126 0 0 1 155.446186-89.410777A175.315248 175.315248 0 0 0 525.945744 161.876165a175.315248 175.315248 0 0 0 136.745893-65.451026A435.950583 435.950583 0 0 1 818.137823 185.835916a175.315248 175.315248 0 0 0 11.687684 151.355497 175.315248 175.315248 0 0 0 125.05821 85.904472 438.872504 438.872504 0 0 1 0 178.821552z" p-id="19465"></path><path d="M525.945744 293.362601a219.14406 219.14406 0 1 0 219.144059 219.14406A219.14406 219.14406 0 0 0 525.945744 293.362601z m0 350.630496a131.486436 131.486436 0 1 1 131.486435-131.486436A131.486436 131.486436 0 0 1 525.945744 643.993097z" p-id="19466"></path></svg>