<?xml version="1.0" encoding="UTF-8"?>
<svg width="22px" height="22px" viewBox="0 0 22 22" version="1.1" xmlns="http://www.w3.org/2000/svg" xmlns:xlink="http://www.w3.org/1999/xlink">
    <!-- Generator: Sketch 60 (88103) - https://sketch.com -->
    <title>流水</title>
    <desc>Created with Sketch.</desc>
    <defs>
        <linearGradient x1="95.7045987%" y1="109.483887%" x2="26.3371344%" y2="27.7524959%" id="linearGradient-1">
            <stop stop-color="#FFFFFF" stop-opacity="0.228802448" offset="0%"></stop>
            <stop stop-color="#FFFFFF" offset="100%"></stop>
        </linearGradient>
    </defs>
    <g id="首页" stroke="none" stroke-width="1" fill="none" fill-rule="evenodd">
        <g id="平台-首页" transform="translate(-1512.000000, -159.000000)" fill="url(#linearGradient-1)" fill-rule="nonzero">
            <g id="流水金额" transform="translate(1481.000000, 126.000000)">
                <g id="流水-2" transform="translate(31.000000, 33.000000)">
                    <g id="流水">
                        <path d="M7.72200899,5.52016019 L13.0295152,5.52016019 C14.6740171,5.52016019 15.9225185,1.96165605 15.9225185,1.96165605 C15.9225185,0.894654805 15.8125184,0.0916538705 13.9920163,0.0311538001 C12.1715142,-0.0293462703 11.7315137,1.30715528 10.4225121,1.30715528 C9.08051057,1.30715528 8.40950979,0.262154069 6.75400786,0.0311538001 C5.10400594,-0.199846469 4.82350561,0.894654805 4.82350561,1.96165605 C4.82350561,1.96165605 6.07750707,5.52016019 7.72200899,5.52016019 L7.72200899,5.52016019 Z M13.3155155,6.62016147 L7.72200899,6.62016147 C1.52350177,6.62016147 -5.32907052e-14,18.7916756 -5.32907052e-14,18.7916756 C-5.32907052e-14,20.3921775 1.29800151,21.9981794 2.89300337,21.9981794 L18.1390211,21.9981794 C19.734023,21.9981794 21.0320392,20.3921775 21.0320392,18.7916756 C21.0375245,18.7971756 19.5085227,6.62016147 13.3155155,6.62016147 Z M13.9535162,15.9811724 C14.3275167,15.9811724 14.630017,16.2836727 14.630017,16.6576731 C14.630017,17.0316736 14.3275167,17.3341739 13.9535162,17.3341739 L11.209013,17.3341739 L11.209013,19.110676 C11.209013,19.4846764 10.9065127,19.7871768 10.5325123,19.7871768 C10.1585118,19.7871768 9.85601147,19.4846764 9.85601147,19.110676 L9.85601147,17.3341739 L7.09500826,17.3341739 C6.72100782,17.3341739 6.41850747,17.0316736 6.41850747,16.6576731 C6.41850747,16.2836727 6.72100782,15.9811724 7.09500826,15.9811724 L9.85601147,15.9811724 L9.85601147,15.1231714 L7.09500826,15.1231714 C6.72100782,15.1231714 6.41850747,14.820671 6.41850747,14.4466706 C6.41850747,14.0726701 6.72100782,13.7701698 7.09500826,13.7701698 L8.96501043,13.7701698 L7.0510082,10.3711658 C6.86400799,10.0466655 6.97400812,9.63416497 7.29850849,9.44716476 C7.62300887,9.26016454 8.03550935,9.37016467 8.22250957,9.69466504 L10.5215122,13.7701698 L10.6370124,13.7701698 L12.9360151,9.69466504 C13.1230153,9.37566467 13.5355158,9.26016454 13.8600161,9.44716476 C14.1845165,9.63416497 14.2945166,10.0466655 14.1075164,10.3711658 L12.1935142,13.7701698 L13.9425162,13.7701698 C14.3165167,13.7701698 14.619017,14.0726701 14.619017,14.4466706 C14.619017,14.820671 14.3165167,15.1231714 13.9425162,15.1231714 L11.198013,15.1231714 L11.198013,15.9811724 L13.9535162,15.9811724 L13.9535162,15.9811724 Z" id="形状"></path>
                    </g>
                </g>
            </g>
        </g>
    </g>
</svg>