<?xml version="1.0" encoding="UTF-8"?>
<svg width="22px" height="22px" viewBox="0 0 22 22" version="1.1" xmlns="http://www.w3.org/2000/svg" xmlns:xlink="http://www.w3.org/1999/xlink">
    <!-- Generator: Sketch 60 (88103) - https://sketch.com -->
    <title>注册创客</title>
    <desc>Created with Sketch.</desc>
    <defs>
        <linearGradient x1="50%" y1="21.6470933%" x2="100%" y2="117.074086%" id="linearGradient-1">
            <stop stop-color="#FFFFFF" offset="0%"></stop>
            <stop stop-color="#FFFFFF" stop-opacity="0.220388986" offset="100%"></stop>
        </linearGradient>
    </defs>
    <g id="首页" stroke="none" stroke-width="1" fill="none" fill-rule="evenodd">
        <g id="平台-首页" transform="translate(-634.000000, -159.000000)" fill="url(#linearGradient-1)" fill-rule="nonzero">
            <g id="注册创客" transform="translate(603.000000, 126.000000)">
                <g id="注册创客-2" transform="translate(31.000000, 33.000000)">
                    <g id="注册创客">
                        <path d="M10.9999877,11.9997176 C14.308095,11.9997176 17,9.31520567 17,5.98806039 C17,2.66091511 14.3302097,0 10.9999877,0 C7.69163353,0 5,2.68451189 5,6.01165717 C5.02186795,9.31546244 7.71276103,12 10.9999877,12 L10.9999877,11.9997176 Z M8.02813608,13 C3.41997837,13 0,15.6872751 0,19.5695629 L0,19.9738441 C0,22 3.68659674,22 8.31910105,22 L13,22 C11.0113684,20.9122576 9.70094037,19.0566269 9.70094037,16.9450891 L9.70094037,16.926781 L9.7009403,16.9268382 C9.70291817,15.4725575 10.3262056,14.0720217 11.4472295,13.0028977 L8.02813608,13 Z M16.5225853,21.9998926 L16.5225855,21.9998926 C17.258649,22.000495 17.9882244,21.869767 18.6730571,21.6145647 C19.352268,21.3576794 19.9408837,20.9938226 20.4164074,20.5437941 L20.4164074,20.5437942 C20.9164875,20.0914053 21.3099004,19.5442038 21.5708887,18.9380217 C21.8649685,18.3382713 22,17.6745632 22,16.9893841 C22,16.304205 21.8639551,15.6617283 21.570914,15.0407465 C21.2766061,14.4412598 20.891703,13.9057547 20.4164327,13.4562055 L20.4164326,13.4562053 C19.9102975,13.000397 19.3191762,12.6373333 18.6730569,12.3854348 C17.9940992,12.1070785 17.2921635,12.0001069 16.5225853,12.0001069 L16.5225856,12.0001069 C15.7864588,11.9957157 15.056445,12.1266648 14.3731274,12.3856744 C13.6939164,12.6427993 13.1055541,12.9854008 12.6063175,13.456445 L12.6063175,13.4564451 C12.1049453,13.9041227 11.7045021,14.4431145 11.429086,15.0409861 C11.157503,15.5977466 11,16.2614307 11,16.9681048 L11,16.9896237 C11,17.6748028 11.1357915,18.3385109 11.429086,18.9382373 C11.7228872,19.5592191 12.1080436,20.0944606 12.6062921,20.5435305 L12.6062924,20.5435308 C13.1170231,21.00452 13.7168999,21.3680821 14.3731023,21.6143253 L14.3731026,21.6143254 C15.0564278,21.8733386 15.7864516,22.0042878 16.5225861,21.9998929 L16.5225853,21.9998926 Z M19.1057204,16.0226544 C19.5856843,16.0226544 20,16.4915633 20,17.0394985 C20,17.3009852 19.912705,17.5334276 19.7383834,17.6908678 C19.5640619,17.8483081 19.3457146,17.9253223 19.1062085,17.9253223 L19.1062085,17.8733282 L17.1868899,17.8733282 L17.1868899,19.9840015 C17.1868899,20.2704792 17.1214857,20.5052253 16.9680544,20.7135515 C16.8153797,20.8959827 16.6191429,21 16.3572823,21 C16.1175566,21 15.9213442,20.8959827 15.7905359,20.7135515 L15.7905359,20.7135516 C15.6478227,20.5088594 15.5703053,20.2504428 15.5717005,19.9840308 L15.5717005,17.8727742 L13.8940355,17.8727742 C13.6540414,17.8727742 13.4359625,17.8204594 13.2618606,17.6641564 C13.0872869,17.5340012 13,17.3255972 13,17.0389445 C13,16.7782452 13.0872869,16.5436945 13.2618606,16.3352896 L13.2618605,16.3352896 C13.4339259,16.1462336 13.6603231,16.0436388 13.8940355,16.0488119 L15.5731647,16.0488119 L15.5731647,13.9901327 C15.5731647,13.728646 15.6602157,13.4962328 15.7920002,13.2864777 C15.9228084,13.1043089 16.1190209,13 16.3587466,13 C16.5984723,13 16.796393,13.1043089 16.9695187,13.2864485 L16.9695187,13.2864485 C17.114116,13.479632 17.1922813,13.7309701 17.1883541,13.9901035 L17.1883541,16.0488119 L19.1057204,16.0226544 Z" id="形状"></path>
                    </g>
                </g>
            </g>
        </g>
    </g>
</svg>