<?xml version="1.0" encoding="UTF-8"?>
<svg width="20px" height="22px" viewBox="0 0 20 22" version="1.1" xmlns="http://www.w3.org/2000/svg" xmlns:xlink="http://www.w3.org/1999/xlink">
    <!-- Generator: Sketch 60 (88103) - https://sketch.com -->
    <title>当前任务数</title>
    <desc>Created with Sketch.</desc>
    <defs>
        <linearGradient x1="101.279711%" y1="128.829602%" x2="50%" y2="31.4499665%" id="linearGradient-1">
            <stop stop-color="#FFFFFF" stop-opacity="0.431381119" offset="0%"></stop>
            <stop stop-color="#FFFFFF" offset="100%"></stop>
        </linearGradient>
    </defs>
    <g id="首页" stroke="none" stroke-width="1" fill="none" fill-rule="evenodd">
        <g id="平台-首页" transform="translate(-1073.000000, -159.000000)" fill="url(#linearGradient-1)" fill-rule="nonzero">
            <g id="任务数" transform="translate(1042.000000, 126.000000)">
                <g id="当前任务数-2" transform="translate(31.000000, 33.000000)">
                    <g id="当前任务数">
                        <path d="M14.5895359,0 L2.32012606,0 C1.03961933,0 -1.42108547e-13,1.07349003 -1.42108547e-13,2.39571556 L-1.42108547e-13,16.4132699 C-1.42108547e-13,19.4962809 2.42789148,22 5.41045791,22 L17.6798677,22 C18.9603745,22 20,20.92651 20,19.6042844 L20,5.58673014 C20.0031634,2.50699197 17.5752719,0 14.5895359,0 L14.5895359,0 Z M10.5673501,15.0157691 L5.57527561,15.0157691 C5.01109195,15.0157691 4.55467371,14.5444808 4.55467371,13.9619161 C4.55467371,13.3793514 5.01109195,12.9047902 5.57527561,12.9047902 L10.5673501,12.9047902 C11.1315338,12.9047902 11.5879683,13.3760785 11.5879683,13.9619161 C11.5911216,14.541208 11.1315338,15.0157691 10.5673501,15.0157691 Z M14.4247182,8.95775067 L5.57527561,8.95775067 C5.01109195,8.95775067 4.55467371,8.48646236 4.55467371,7.90389765 C4.55467371,7.32133294 5.01109195,6.85004463 5.57527561,6.85004463 L14.4247182,6.85004463 C14.9889019,6.85004463 15.4453201,7.32133294 15.4453201,7.90389765 C15.4453201,8.48646236 14.9889019,8.95775067 14.4247182,8.95775067 Z" id="形状"></path>
                    </g>
                </g>
            </g>
        </g>
    </g>
</svg>