<svg xmlns="http://www.w3.org/2000/svg" width="60" height="60" viewBox="0 0 60 60">
  <defs>
    <style>
      .cls-1 {
        fill: #fff;
      }
    </style>
  </defs>
  <g id="空" transform="translate(-0.918 -16.46)">
    <path id="路径_71" data-name="路径 71" class="cls-1" d="M30.918,16.587a30,30,0,1,0,30,30A30,30,0,0,0,30.918,16.587Zm0,57.593a27.6,27.6,0,1,1,27.6-27.6A27.6,27.6,0,0,1,30.918,74.18Z" transform="translate(0 -0.12)"/>
    <path id="路径_72" data-name="路径 72" class="cls-1" d="M630.383,284.287a1.364,1.364,0,0,0-2-1.207h0l-.009.005-.009.005L619.9,287.7a1.363,1.363,0,0,0-.186,2.377,1.354,1.354,0,0,0,.207.113l8.283,4.506a1.364,1.364,0,1,0,1.418-2.318h0l-6.426-3.437,6.462-3.447.011-.006,0,0h0A1.363,1.363,0,0,0,630.383,284.287Z" transform="translate(-581.164 -250.498)"/>
    <path id="路径_73" data-name="路径 73" class="cls-1" d="M206.7,290.186a1.363,1.363,0,0,0,.021-2.489l-8.46-4.607-.011-.006-.008,0h0a1.364,1.364,0,0,0-1.293,2.4h0l0,0,.011.006,6.462,3.447L197,292.374h0a1.364,1.364,0,1,0,1.418,2.318Z" transform="translate(-183.629 -250.498)"/>
    <path id="路径_74" data-name="路径 74" class="cls-1" d="M301.176,531.63a13.374,13.374,0,0,0-26.743.061c0,.03,0,.06,0,.091s0,.031,0,.047c0,.031,0,.062,0,.093h.007a1.528,1.528,0,0,0,3.05-.139c0-.026,0-.052,0-.077a10.323,10.323,0,0,1,20.641.014s0,.009,0,.013c0,.027,0,.054,0,.08s0,.029,0,.043l0,.009a1.527,1.527,0,0,0,3.036.057h.012c0-.042,0-.084,0-.126,0-.021,0-.042,0-.063S301.178,531.664,301.176,531.63Z" transform="translate(-256.887 -471.946)"/>
    <path id="路径_75" data-name="路径 75" class="cls-1" d="M31.426,16.46A29.97,29.97,0,1,0,61.394,46.43,29.969,29.969,0,0,0,31.426,16.46Zm0,56.811A26.841,26.841,0,1,1,58.266,46.43,26.841,26.841,0,0,1,31.426,73.272Z" transform="translate(-0.508)"/>
  </g>
</svg>
