<?xml version="1.0" standalone="no"?><!DOCTYPE svg PUBLIC "-//W3C//DTD SVG 1.1//EN" "http://www.w3.org/Graphics/SVG/1.1/DTD/svg11.dtd"><svg t="1596873577709" class="icon" viewBox="0 0 1024 1024" version="1.1" xmlns="http://www.w3.org/2000/svg" p-id="33089" xmlns:xlink="http://www.w3.org/1999/xlink" width="50" height="50"><defs><style type="text/css"></style></defs><path d="M120.22 568c-30.91 0-56.01 25.08-56.01 56.01v261.35c0 30.91 25.08 56.01 56.01 56.01s56.01-25.08 56.01-56.01V624.01c-0.01-30.93-25.1-56.01-56.01-56.01z m261.35-149.34c-30.91 0-56.01 25.08-56.01 56.01v410.7c0 30.91 25.08 56.01 56.01 56.01s56.01-25.08 56.01-56.01V474.65c0-30.91-25.1-55.99-56.01-55.99z m261.35-149.35c-30.91 0-56.01 25.08-56.01 56.01v560.04c0 30.91 25.08 56.01 56.01 56.01 30.91 0 56.01-25.08 56.01-56.01V325.31c0-30.91-25.09-56-56.01-56zM904.27 82.63c-30.91 0-56.01 25.08-56.01 56.01v746.73c0 30.91 25.08 56.01 56.01 56.01 30.91 0 56.01-25.08 56.01-56.01V138.63c0-30.91-25.08-56-56.01-56z" p-id="33090"></path></svg>
