<?xml version="1.0" standalone="no"?><!DOCTYPE svg PUBLIC "-//W3C//DTD SVG 1.1//EN" "http://www.w3.org/Graphics/SVG/1.1/DTD/svg11.dtd"><svg t="1584430574167" class="icon" viewBox="0 0 1024 1024" version="1.1" xmlns="http://www.w3.org/2000/svg" p-id="20151" xmlns:xlink="http://www.w3.org/1999/xlink" width="400" height="400"><defs><style type="text/css"></style></defs><path d="M506.228364 989.184c-256.651636 0-465.454545-208.802909-465.454546-465.454545s208.802909-465.454545 465.454546-465.454546 465.454545 208.802909 465.454545 465.454546-208.802909 465.454545-465.454545 465.454545z m0-861.137455c-218.158545 0-395.636364 177.477818-395.636364 395.636364 0 218.112 177.477818 395.636364 395.636364 395.636364 218.158545 0 395.636364-177.524364 395.636363-395.636364 0-218.158545-177.477818-395.636364-395.636363-395.636364z m250.181818 395.636364a34.909091 34.909091 0 0 0-34.909091-34.909091h-430.545455a34.909091 34.909091 0 0 0 0 69.818182h430.545455a34.862545 34.862545 0 0 0 34.909091-34.909091z" p-id="20152"></path></svg>