<svg xmlns="http://www.w3.org/2000/svg" width="20" height="20" viewBox="0 0 20 20">
  <defs>
    <style>
      .cls-1 {
        fill: none;
      }

      .cls-2 {
        fill: #ccccd2;
      }
    </style>
  </defs>
  <g id="联系人" transform="translate(-1028 -42)">
    <rect id="矩形_360" data-name="矩形 360" class="cls-1" width="20" height="20" transform="translate(1028 42)"/>
    <g id="组_654" data-name="组 654" transform="translate(853.1 36.8)">
      <path id="路径_107" data-name="路径 107" class="cls-2" d="M461.516,819.1a1.016,1.016,0,1,0,1.016,1.016A1.017,1.017,0,0,0,461.516,819.1Z" transform="translate(-276.616 -797.841)"/>
      <path id="路径_108" data-name="路径 108" class="cls-2" d="M191.412,5.66a1.71,1.71,0,0,0-1.178-.46H179.566A1.622,1.622,0,0,0,177.9,6.769V23.631a1.622,1.622,0,0,0,1.666,1.569h10.669a1.622,1.622,0,0,0,1.666-1.569V6.769A1.508,1.508,0,0,0,191.412,5.66ZM179.061,20.547h11.679v3.084a.454.454,0,0,1-.149.335.515.515,0,0,1-.356.14H179.566a.491.491,0,0,1-.5-.476Zm.5-14.254h10.669a.491.491,0,0,1,.5.476v12.6H179.061V6.769A.491.491,0,0,1,179.566,6.293Z"/>
    </g>
  </g>
</svg>
