<svg xmlns="http://www.w3.org/2000/svg" width="20" height="20" viewBox="0 0 20 20">
  <defs>
    <style>
      .cls-1 {
        fill: none;
      }

      .cls-2 {
        fill: #ccccd2;
      }
    </style>
  </defs>
  <g id="角色" transform="translate(-79.197 -0.328)">
    <rect id="矩形_369" data-name="矩形 369" class="cls-1" width="20" height="20" transform="translate(79.197 0.328)"/>
    <path id="路径_110" data-name="路径 110" class="cls-2" d="M89.686,20h-.009a.46.46,0,0,1-.342-.145l-4.8-3.293a5.484,5.484,0,0,1-2.855-4.868V4.2a1.233,1.233,0,0,1,.791-1.169L89.419.075a.484.484,0,0,1,.516,0l6.951,2.956A1.233,1.233,0,0,1,97.677,4.2v7.493a5.484,5.484,0,0,1-2.855,4.867l-4.8,3.293a.46.46,0,0,1-.334.145ZM89.676,1.033,82.809,3.956l-.029.011a.247.247,0,0,0-.161.235v7.491a4.458,4.458,0,0,0,2.357,3.993.42.42,0,0,1,.047.029l4.653,3.192,4.652-3.192a.424.424,0,0,1,.047-.029,4.458,4.458,0,0,0,2.357-3.993V4.2a.247.247,0,0,0-.162-.235l-.028-.011Z" transform="translate(-0.479 0.328)"/>
    <g id="组_694" data-name="组 694" transform="translate(0.4)">
      <path id="路径_111" data-name="路径 111" class="cls-2" d="M369.418,232.589a2.636,2.636,0,1,1,2.636-2.636A2.636,2.636,0,0,1,369.418,232.589Zm0-4.348a1.712,1.712,0,1,0,1.712,1.712A1.712,1.712,0,0,0,369.418,228.241Z" transform="translate(-280.585 -222.989)"/>
      <path id="路径_112" data-name="路径 112" class="cls-2" d="M488.719,469.575a.462.462,0,0,1-.462-.462v-4.521a.462.462,0,1,1,.924,0v4.521a.462.462,0,0,1-.462.462Z" transform="translate(-399.845 -455.043)"/>
      <path id="路径_113" data-name="路径 113" class="cls-2" d="M504.025,548.2h-1.258a.462.462,0,0,1,0-.924h1.258a.462.462,0,0,1,0,.924Z" transform="translate(-413.616 -536.778)"/>
    </g>
  </g>
</svg>
