<svg xmlns="http://www.w3.org/2000/svg" width="20" height="20" viewBox="0 0 20 20">
  <defs>
    <style>
      .cls-1 {
        fill: none;
      }

      .cls-2 {
        fill: #ccccd2;
      }
    </style>
  </defs>
  <g id="企业" transform="translate(0 2)">
    <rect id="矩形_162" data-name="矩形 162" class="cls-1" width="20" height="20" transform="translate(0 -2)"/>
    <path id="路径_36" data-name="路径 36" class="cls-2" d="M19.333,80.615h-.667V70.923A2.727,2.727,0,0,0,16,68.154H12V66.769A2.727,2.727,0,0,0,9.333,64H4a2.727,2.727,0,0,0-2.667,2.769V80.615H.667A.693.693,0,0,0,.667,82H19.333a.693.693,0,0,0,0-1.385ZM10.667,68.154V80.615h-8V66.769A1.364,1.364,0,0,1,4,65.385H9.333a1.364,1.364,0,0,1,1.333,1.385Zm6.667,12.462H12V69.538h4a1.364,1.364,0,0,1,1.333,1.385ZM8.667,68.154h-4a.693.693,0,0,0,0,1.385h4a.693.693,0,0,0,0-1.385Zm0,4.154h-4a.693.693,0,0,0,0,1.385h4a.693.693,0,0,0,0-1.385Zm0,4.154h-4a.693.693,0,0,0,0,1.385h4a.693.693,0,0,0,0-1.385Zm6.667-4.154H14a.693.693,0,0,0,0,1.385h1.333a.693.693,0,0,0,0-1.385Zm0,4.154H14a.693.693,0,0,0,0,1.385h1.333a.693.693,0,0,0,0-1.385Z" transform="translate(0 -64)"/>
  </g>
</svg>
