<svg xmlns="http://www.w3.org/2000/svg" width="20" height="20" viewBox="0 0 20 20">
  <defs>
    <style>
      .cls-1 {
        fill: #636878;
      }
    </style>
  </defs>
  <path id="帮助" class="cls-1" d="M99.6,81.408a10,10,0,1,0,10,10A10,10,0,0,0,99.6,81.408Zm.63,14.909a1.067,1.067,0,0,1-.739.291,1.006,1.006,0,0,1-.739-.3.994.994,0,0,1-.3-.727.933.933,0,0,1,.3-.727,1.006,1.006,0,0,1,.739-.291,1.018,1.018,0,0,1,.752.291.933.933,0,0,1,.3.727,1.018,1.018,0,0,1-.315.752Zm2.061-5.576a14.619,14.619,0,0,1-1.212,1.115,2.206,2.206,0,0,0-.594.739,1.915,1.915,0,0,0-.23.945v.242H98.739v-.242a2.836,2.836,0,0,1,.291-1.358,7.369,7.369,0,0,1,1.6-1.794l.242-.267a1.685,1.685,0,0,0,.4-1.042A1.523,1.523,0,0,0,99.6,87.541a1.588,1.588,0,0,0-1.394.618,2.424,2.424,0,0,0-.388,1.455H96.364a3.118,3.118,0,0,1,3.382-3.333,3.212,3.212,0,0,1,2.279.691,2.558,2.558,0,0,1,.861,2.048,2.764,2.764,0,0,1-.594,1.733Z" transform="translate(-89.6 -81.408)"/>
</svg>
