<?xml version="1.0" standalone="no"?><!DOCTYPE svg PUBLIC "-//W3C//DTD SVG 1.1//EN" "http://www.w3.org/Graphics/SVG/1.1/DTD/svg11.dtd"><svg t="1596384597878" class="icon" viewBox="0 0 1024 1024" version="1.1" xmlns="http://www.w3.org/2000/svg" p-id="22047" xmlns:xlink="http://www.w3.org/1999/xlink" width="100" height="100"><defs><style type="text/css"></style></defs><path d="M512.845 996.191a43.35 43.35 0 0 1-32.563-14.732L11.532 447.994a43.364 43.364 0 0 1-5.853-48.704l179.05-342.444a43.35 43.35 0 0 1 38.415-23.264h579.41a43.357 43.357 0 0 1 38.415 23.264l179.043 342.444a43.343 43.343 0 0 1-5.86 48.696l-468.75 533.459a43.285 43.285 0 0 1-32.557 14.746z m-416.55-583.08l416.55 474.055L929.403 413.11 776.305 120.29H249.393L96.295 413.111z" p-id="22048" fill="#dcdfe6"></path><path d="M512.845 736.474a43.357 43.357 0 0 1-32.18-14.299L205.472 417.367a43.357 43.357 0 0 1 64.36-58.104l243.013 269.168 243.013-269.168a43.35 43.35 0 0 1 64.354 58.104L545.025 722.168a43.336 43.336 0 0 1-32.18 14.306z" p-id="22049" fill="#dcdfe6"></path></svg>