<svg xmlns="http://www.w3.org/2000/svg" width="20" height="21.001" viewBox="0 0 20 21.001">
  <defs>
    <style>
      .cls-1 {
        fill: #fff;
      }
    </style>
  </defs>
  <g id="导出" transform="translate(-0.734 2)">
    <g id="组_118" data-name="组 118" transform="translate(0.735 -1)">
      <path id="联合_7" data-name="联合 7" class="cls-1" d="M.956,20A.925.925,0,0,1,0,19.118V7.053A.925.925,0,0,1,.956,6.17H5.783a.664.664,0,1,1,0,1.324H1.434V18.666H18.566V7.494H13.907a.664.664,0,1,1,0-1.324h5.137A.925.925,0,0,1,20,7.053V19.107a.926.926,0,0,1-.956.894Zm8.591-5.394,0,0L5.324,10.584l.007-.007a.735.735,0,1,1,1-1.061l0,0L9.3,12.349V-.325A.678.678,0,0,1,9.972-1h.122a.678.678,0,0,1,.67.675v12.7l2.992-2.853h0a.73.73,0,0,1,1.27.5.739.739,0,0,1-.268.571h0l-4.221,4.026h0a.727.727,0,0,1-.992-.005Z" transform="translate(0 0)"/>
    </g>
  </g>
</svg>
