<svg xmlns="http://www.w3.org/2000/svg" width="20" height="20.001" viewBox="0 0 20 20.001">
  <defs>
    <style>
      .cls-1 {
        fill: #fff;
      }
    </style>
  </defs>
  <g id="导出" transform="translate(-0.735 1)">
    <g id="组_118" data-name="组 118" transform="translate(0.735 -1)">
      <path id="联合_7" data-name="联合 7" class="cls-1" d="M.956,20A.9.9,0,0,1,0,19.182V7.989a.9.9,0,0,1,.956-.818H5.783a.671.671,0,0,1,.716.614.671.671,0,0,1-.716.614H1.434V18.762H18.566V8.4H13.907a.672.672,0,0,1-.717-.614.672.672,0,0,1,.717-.614h5.137A.9.9,0,0,1,20,7.989V19.172a.9.9,0,0,1-.956.829Zm9-4.195a.678.678,0,0,1-.67-.676V2.435L6.3,5.288v0a.725.725,0,0,1-.54.24A.738.738,0,0,1,5.3,4.219l0,0L9.516.193h0a.725.725,0,0,1,.991,0l0,0L14.73,4.222l-.006.007a.735.735,0,1,1-1,1.061l0,0L10.752,2.457V15.13a.678.678,0,0,1-.67.676Z" transform="translate(0 0)"/>
    </g>
  </g>
</svg>
