<svg xmlns="http://www.w3.org/2000/svg" width="22" height="22.001" viewBox="0 0 22 22.001">
  <defs>
    <style>
      .cls-1, .cls-2 {
        fill: none;
      }

      .cls-3, .cls-4 {
        stroke: none;
      }

      .cls-4 {
        fill: #e37f22;
      }
    </style>
  </defs>
  <g id="女" transform="translate(-101 -906)">
    <rect id="矩形_318" data-name="矩形 318" class="cls-1" width="22" height="22" transform="translate(101 906)"/>
    <g id="女-2" data-name="女" class="cls-2" transform="translate(105 906.001)">
      <path class="cls-3" d="M6.3,21.3V16.5H2.1a.688.688,0,1,1,0-1.375H6.3V13.716A6.924,6.924,0,0,1,0,6.875,6.939,6.939,0,0,1,7,0a6.939,6.939,0,0,1,7,6.876,6.924,6.924,0,0,1-6.3,6.841v1.408h4.2a.688.688,0,1,1,0,1.375H7.7v4.8a.7.7,0,0,1-1.4,0Z"/>
      <path class="cls-4" d="M 7.000200271606445 12.77972602844238 L 7.60338020324707 12.7209300994873 C 9.07844066619873 12.57712936401367 10.4423303604126 11.90320014953613 11.44379997253418 10.82326984405518 C 12.44758987426758 9.740849494934082 13.00040054321289 8.338689804077148 13.00040054321289 6.875099658966064 C 13.00040054321289 3.635059833526611 10.30872058868408 0.9990997314453125 7.000200271606445 0.9990997314453125 C 3.691680192947388 0.9990997314453125 1.000000238418579 3.635059833526611 1.000000238418579 6.875099658966064 C 1.000000238418579 8.338689804077148 1.552810311317444 9.740849494934082 2.556600332260132 10.82326984405518 C 3.558070182800293 11.90320014953613 4.921960353851318 12.57712936401367 6.39702033996582 12.7209300994873 L 7.000200271606445 12.77972602844238 M 7.000200271606445 22.0004997253418 C 6.613200187683105 22.0004997253418 6.300000190734863 21.68639945983887 6.300000190734863 21.30030059814453 L 6.300000190734863 16.49970054626465 L 2.100600242614746 16.49970054626465 C 1.713600277900696 16.49970054626465 1.400400280952454 16.1919002532959 1.400400280952454 15.81209945678711 C 1.400400280952454 15.43229961395264 1.713600277900696 15.12449932098389 2.100600242614746 15.12449932098389 L 6.300000190734863 15.12449932098389 L 6.300000190734863 13.71620941162109 C 2.762290239334106 13.37133979797363 2.716064386731887e-07 10.44020938873291 2.716064386731887e-07 6.875099658966064 C 2.716064386731887e-07 3.077999830245972 3.133800268173218 -0.0009002715814858675 7.000200271606445 -0.0009002715814858675 C 10.86660003662109 -0.0009002715814858675 14.00040054321289 3.077999830245972 14.00040054321289 6.875099658966064 C 14.00040054321289 10.44020938873291 11.23811054229736 13.37133979797363 7.700400352478027 13.71620941162109 L 7.700400352478027 15.12449932098389 L 11.90070056915283 15.12449932098389 C 12.28680038452148 15.12449932098389 12.60000038146973 15.43229961395264 12.60000038146973 15.81209945678711 C 12.60000038146973 16.1919002532959 12.28680038452148 16.49970054626465 11.90070056915283 16.49970054626465 L 7.700400352478027 16.49970054626465 L 7.700400352478027 21.30030059814453 C 7.700400352478027 21.68639945983887 7.387200355529785 22.0004997253418 7.000200271606445 22.0004997253418 Z"/>
    </g>
  </g>
</svg>
