<svg xmlns="http://www.w3.org/2000/svg" width="24" height="24" viewBox="0 0 24 24">
  <defs>
    <style>
      .cls-1 {
        fill: #fff;
      }
    </style>
  </defs>
  <path id="不通过" class="cls-1" d="M59.838,50.859,56.03,54.667l3.807,3.807a.964.964,0,0,1-1.364,1.364L54.667,56.03l-3.807,3.807A.964.964,0,0,1,49.5,58.474L53.3,54.667,49.5,50.859A.964.964,0,0,1,50.859,49.5L54.667,53.3,58.474,49.5a.964.964,0,1,1,1.364,1.364Zm-5.171-8.193a12,12,0,1,0,12,12,12,12,0,0,0-12-12Zm0,22.462A10.462,10.462,0,1,1,65.128,54.667,10.462,10.462,0,0,1,54.667,65.128Z" transform="translate(-42.667 -42.667)"/>
</svg>
