<?xml version="1.0" standalone="no"?><!DOCTYPE svg PUBLIC "-//W3C//DTD SVG 1.1//EN" "http://www.w3.org/Graphics/SVG/1.1/DTD/svg11.dtd"><svg t="1596873359449" class="icon" viewBox="0 0 1024 1024" version="1.1" xmlns="http://www.w3.org/2000/svg" p-id="26492" xmlns:xlink="http://www.w3.org/1999/xlink" width="50" height="50"><defs><style type="text/css"></style></defs><path d="M844.8 179.2a169.984 169.984 0 0 0-240.64 0L455.68 327.68c-10.24 10.24-10.24 30.72 0 40.96 10.24 10.24 30.72 10.24 40.96 0l148.48-148.48c40.96-40.96 112.64-40.96 153.6 0 20.48 20.48 30.72 46.08 30.72 76.8s-10.24 56.32-30.72 76.8L650.24 522.24c-10.24 10.24-10.24 30.72 0 40.96 5.12 5.12 15.36 10.24 20.48 10.24 10.24 0 15.36-5.12 20.48-10.24l148.48-148.48c71.68-61.44 71.68-168.96 5.12-235.52zM414.72 317.44c15.36 0 30.72-15.36 30.72-30.72v-128c0-15.36-15.36-30.72-30.72-30.72S384 143.36 384 158.72v128c0 10.24 5.12 15.36 10.24 20.48 5.12 10.24 15.36 10.24 20.48 10.24z m332.8 394.24c-5.12-5.12-10.24-10.24-20.48-5.12-5.12 0-15.36 5.12-20.48 10.24-10.24 10.24-10.24 25.6 0 35.84l76.8 76.8c10.24 10.24 25.6 10.24 35.84 0 10.24-10.24 10.24-25.6 0-35.84l-71.68-81.92z m117.76-138.24h-128c-10.24 0-15.36 5.12-20.48 10.24-5.12 5.12-10.24 15.36-10.24 20.48 0 15.36 15.36 30.72 30.72 30.72h128c15.36 0 30.72-15.36 30.72-30.72s-15.36-30.72-30.72-30.72z m-256 133.12c-15.36 0-30.72 15.36-30.72 30.72v128c0 15.36 15.36 30.72 30.72 30.72S640 880.64 640 865.28v-128c0-10.24-5.12-15.36-10.24-20.48-5.12-10.24-15.36-10.24-20.48-10.24z m-87.04-51.2L373.76 803.84c-20.48 20.48-46.08 30.72-76.8 30.72s-56.32-10.24-76.8-30.72c-20.48-20.48-30.72-46.08-30.72-76.8s10.24-56.32 30.72-76.8l148.48-148.48c10.24-10.24 10.24-30.72 0-40.96-10.24-15.36-30.72-15.36-40.96-5.12L179.2 604.16c-30.72 30.72-51.2 76.8-51.2 117.76s15.36 87.04 51.2 117.76c30.72 30.72 76.8 51.2 117.76 51.2 40.96 0 87.04-15.36 117.76-51.2L563.2 691.2c10.24-10.24 10.24-30.72 0-40.96-10.24-10.24-25.6-10.24-40.96 5.12zM276.48 312.32c5.12 5.12 10.24 10.24 20.48 5.12 5.12 0 15.36-5.12 20.48-10.24 10.24-10.24 10.24-25.6 0-35.84l-81.92-71.68c-10.24-10.24-25.6-10.24-35.84 0-10.24 10.24-10.24 25.6 0 35.84l76.8 76.8zM158.72 450.56h128c10.24 0 15.36-5.12 20.48-10.24 5.12-5.12 10.24-15.36 10.24-20.48 0-15.36-15.36-30.72-30.72-30.72h-128c-15.36 0-30.72 15.36-30.72 30.72s15.36 30.72 30.72 30.72z" p-id="26493"></path></svg>