<svg xmlns="http://www.w3.org/2000/svg" width="22" height="22" viewBox="0 0 22 22">
  <defs>
    <style>
      .cls-1 {
        fill: none;
      }

      .cls-2, .cls-3 {
        stroke: none;
      }

      .cls-3 {
        fill: #1089ff;
      }
    </style>
  </defs>
  <g id="男" class="cls-1" transform="translate(0 -0.001)">
    <path class="cls-2" d="M0,14.438A7.563,7.563,0,0,1,12.364,8.595l7.22-7.22H14.438a.687.687,0,1,1,0-1.374h6.874A.687.687,0,0,1,22,.688V7.563a.687.687,0,1,1-1.374,0V2.279L13.343,9.56A7.563,7.563,0,1,1,0,14.438Z"/>
    <path class="cls-3" d="M 7.562700748443604 21.0004997253418 C 11.1813907623291 21.0004997253418 14.12540054321289 18.05648994445801 14.12540054321289 14.43780040740967 C 14.12540054321289 12.88932991027832 13.5761604309082 11.3863697052002 12.57886028289795 10.20576953887939 L 12.19193649291992 9.747737884521484 L 11.7291202545166 9.366959571838379 C 10.55982112884521 8.404919624328613 9.080161094665527 7.875100135803223 7.562700748443604 7.875100135803223 C 3.944010734558105 7.875100135803223 1.000000715255737 10.81910991668701 1.000000715255737 14.43780040740967 C 1.000000715255737 18.05648994445801 3.944010734558105 21.0004997253418 7.562700748443604 21.0004997253418 M 7.562700748443604 22.0004997253418 C 3.38580060005188 22.0004997253418 6.820678777330613e-07 18.61470031738281 6.820678777330613e-07 14.43780040740967 C 6.820678777330613e-07 10.26089954376221 3.38580060005188 6.875100135803223 7.562700748443604 6.875100135803223 C 9.386011123657227 6.875100135803223 11.05847072601318 7.520219802856445 12.36447048187256 8.594730377197266 L 19.5840015411377 1.375200033187866 L 14.43780040740967 1.375200033187866 C 14.0580005645752 1.375200033187866 13.75020027160645 1.067399978637695 13.75020027160645 0.6876000165939331 C 13.75020027160645 0.3086999952793121 14.0580005645752 0.0008999969577416778 14.43780040740967 0.0008999969577416778 L 21.3120002746582 0.0008999969577416778 C 21.69180107116699 0.0008999969577416778 21.99960136413574 0.3086999952793121 21.99960136413574 0.6876000165939331 L 21.99960136413574 7.562699794769287 C 21.99960136413574 7.942500114440918 21.69180107116699 8.250300407409668 21.3120002746582 8.250300407409668 C 20.9330997467041 8.250300407409668 20.62530136108398 7.942500114440918 20.62530136108398 7.562699794769287 L 20.62530136108398 2.27878999710083 L 13.34278106689453 9.560460090637207 C 14.45511054992676 10.87722969055176 15.12540054321289 12.57905006408691 15.12540054321289 14.43780040740967 C 15.12540054321289 18.61470031738281 11.73960113525391 22.0004997253418 7.562700748443604 22.0004997253418 Z"/>
  </g>
</svg>
