<?xml version="1.0" standalone="no"?><!DOCTYPE svg PUBLIC "-//W3C//DTD SVG 1.1//EN" "http://www.w3.org/Graphics/SVG/1.1/DTD/svg11.dtd"><svg t="1598941189974" class="icon" viewBox="0 0 1024 1024" version="1.1" xmlns="http://www.w3.org/2000/svg" p-id="1172" width="200" height="200" xmlns:xlink="http://www.w3.org/1999/xlink"><defs><style type="text/css"></style></defs><path d="M512.003649 779.571374c-31.052418 0-56.193564-25.146012-56.193565-56.187483 0-31.046336 25.141147-56.194781 56.193565-56.194781 31.04512 0 56.188699 25.148445 56.188699 56.194781 0 31.041471-25.143579 56.187483-56.188699 56.187483m0-168.570963c-15.512829 0-28.101647-25.148445-28.101648-56.194781l-28.091917-252.860093c0-31.047553 25.141147-56.193564 56.193565-56.193565 31.04512 0 56.188699 25.146012 56.188699 56.193565l-28.096782 252.860093c0 31.049985-12.587602 56.194781-28.091917 56.194781m0 0z" p-id="1173"></path><path d="M1010.202169 512.662889c0-67.243749-13.17508-132.491532-39.161563-193.932261-25.093711-59.327998-61.010156-112.604849-106.756825-158.350303-45.741805-45.744237-99.022305-81.663115-158.349086-106.755609C644.493965 27.638233 579.246182 14.461937 512.001216 14.461937c-67.243749 0-132.491532 13.176296-193.932262 39.162779-59.327998 25.093711-112.606065 61.011372-158.350302 106.756826-45.744237 45.745454-81.663115 99.021088-106.756826 158.349086C26.975344 380.170141 13.799047 445.41914 13.799047 512.662889c0 67.243749 13.17508 132.491532 39.162779 193.932262 25.093711 59.327998 61.011372 112.603632 106.756826 158.349086 45.743021 45.744237 99.022305 81.664331 158.350302 106.756826 61.439513 25.986483 126.688513 39.161563 193.932262 39.161563 67.244965 0 132.492748-13.17508 193.933479-39.161563a864.359192 864.359192 0 0 0 5.827345-2.499519c24.751927-10.719348 48.878671-22.831372 71.363394-37.807808 8.117659-5.408935 16.12585-11.173032 23.606163-17.334864 11.998907-9.875228 13.792966-27.595662 3.978553-39.66998-9.852118-12.118106-27.661343-13.954735-39.781881-4.102617-5.264194 4.278982-10.766784 8.326865-16.348436 12.130269C700.114647 919.531055 633.646904 941.424652 568.695901 950.387647a415.978334 415.978334 0 0 1-56.694685 3.917737c-117.967563 0-228.874442-45.940063-312.290261-129.354666s-129.354666-194.322698-129.354666-312.289045c0-117.967563 45.938847-228.874442 129.354666-312.290261 83.415819-83.415819 194.322698-129.354666 312.290261-129.354666 117.96878 0 228.873226 45.938847 312.290262 129.354666 83.414603 83.415819 129.354666 194.322698 129.354666 312.290261 0 31.873428-3.392291 63.216544-9.93726 93.653508a28.813189 28.813189 0 0 0-0.682351 2.962934c-0.007298 0.045004-0.087574 0.498687-0.249344 1.325779a436.965779 436.965779 0 0 1-24.326218 75.371138 113.311525 113.311525 0 0 0-1.646885 4.055181 383.097801 383.097801 0 0 1-8.982456 18.76038c-7.128798 13.895136-1.644452 30.940517 12.250683 38.071748a28.163679 28.163679 0 0 0 12.888031 3.123486c10.26688 0 20.1713-5.610842 25.181285-15.375386 26.910879-52.441245 37.45143-99.513694 39.995952-112.39686 8.019138-35.699942 12.064588-72.320631 12.064588-109.550692z" p-id="1174"></path></svg>
