<svg xmlns="http://www.w3.org/2000/svg" width="34" height="34" viewBox="0 0 34 34">
  <defs>
    <style>
      .cls-1 {
        fill: #fff;
      }
    </style>
  </defs>
  <path id="设置-选中" class="cls-1" d="M80.926,74.114a6.774,6.774,0,0,0,0,13.543,6.774,6.774,0,0,0,0-13.543Zm0,10.669a3.9,3.9,0,1,1,3.8-3.9A3.807,3.807,0,0,1,80.926,84.783Zm16.679-7.2a2.834,2.834,0,0,0-2.189-2.438l-.2-.03a3.147,3.147,0,0,1-2.026-1.672,3.266,3.266,0,0,1-.36-2.578,2.915,2.915,0,0,0-.77-3.287,15.081,15.081,0,0,0-5.462-3.4,2.783,2.783,0,0,0-3.175.762l-.11.129c-.948,1.24-3.1,1.63-4.89-.2a2.873,2.873,0,0,0-3.171-.686,20.32,20.32,0,0,0-5.246,3.2,2.926,2.926,0,0,0-1.047,3.264,3.943,3.943,0,0,1-.319,2.908,3.638,3.638,0,0,1-2.1,1.581,1.461,1.461,0,0,0-.683.3A3.551,3.551,0,0,0,64.41,77.2l-.114.349V77.7a17.507,17.507,0,0,0-.3,3.264,15.38,15.38,0,0,0,.322,3.321,2.834,2.834,0,0,0,2.189,2.427l.2.03a3.15,3.15,0,0,1,2.026,1.668,3.273,3.273,0,0,1,.36,2.582,2.915,2.915,0,0,0,.77,3.287,14.958,14.958,0,0,0,5.645,3.443l.216.076h.008a1.858,1.858,0,0,0,.516.076h.224a3.14,3.14,0,0,0,2.257-1.043c1.074-1.3,3.183-1.619,4.924.163a2.889,2.889,0,0,0,2.029.955,2.368,2.368,0,0,0,1.066-.19,20.689,20.689,0,0,0,5.258-3.2,2.91,2.91,0,0,0,1.036-3.264,3.931,3.931,0,0,1,.319-2.9,3.623,3.623,0,0,1,2.1-1.581,1.406,1.406,0,0,0,.687-.307,3.535,3.535,0,0,0,1.449-1.763l.114-.349v-.155A17.606,17.606,0,0,0,98,80.851a23.406,23.406,0,0,0-.395-3.272Zm-2.671,6.184a.52.52,0,0,1-.228.258l-.027.015a6.442,6.442,0,0,0-3.763,2.927,6.891,6.891,0,0,0-.58,5.111l.023.133-.091.08a17.859,17.859,0,0,1-4.518,2.783.771.771,0,0,1-.125-.106,6.276,6.276,0,0,0-4.484-2.1,5.794,5.794,0,0,0-4.48,2.021.326.326,0,0,1-.2.114l-.239-.076H76.18a12.2,12.2,0,0,1-4.4-2.73L71.7,92.04a6.234,6.234,0,0,0-.558-5.092,5.924,5.924,0,0,0-3.949-3.037l-.11-.015.011-.053-.03-.171a12.221,12.221,0,0,1-.254-2.7,14.236,14.236,0,0,1,.262-2.8.523.523,0,0,1,.228-.258l.023-.015a6.43,6.43,0,0,0,3.763-2.927,6.918,6.918,0,0,0,.539-5.225l.106-.095a17.6,17.6,0,0,1,4.518-2.787c.1-.034.137-.034.2.034A6.276,6.276,0,0,0,80.93,69a5.635,5.635,0,0,0,4.525-2.063c.072-.068.129-.091.14-.072a12.466,12.466,0,0,1,4.548,2.809l.087.155a6.234,6.234,0,0,0,.558,5.092,5.916,5.916,0,0,0,3.949,3.037l.091.015a.363.363,0,0,1,.011.057l.027.144a19.451,19.451,0,0,1,.334,2.8A14.468,14.468,0,0,1,94.935,83.763Z" transform="translate(-64 -63.951)"/>
</svg>
