<?xml version="1.0" standalone="no"?><!DOCTYPE svg PUBLIC "-//W3C//DTD SVG 1.1//EN" "http://www.w3.org/Graphics/SVG/1.1/DTD/svg11.dtd"><svg t="1596873510223" class="icon" viewBox="0 0 1024 1024" version="1.1" xmlns="http://www.w3.org/2000/svg" p-id="32299" xmlns:xlink="http://www.w3.org/1999/xlink" width="50" height="50"><defs><style type="text/css"></style></defs><path d="M512 62.21c-248.17 0-450 201.77-450 449.82C62 760.02 263.83 961.8 512 961.8c248.12 0 450-201.77 450-449.77 0-248.05-201.88-449.82-450-449.82z m0 65.28c57.99 0 112.81 13.27 162.17 36.31-40.5 12.45-78.35 26.54-112.95 42.53-12.99-12.65-30.63-20.5-50.18-20.5-11.74 0-22.67 3.11-32.45 8.1-26.4-20.88-51.23-37.94-72.75-51.2 33.75-9.73 69.31-15.24 106.16-15.24zM348.77 420.97c32.68-37.07 71.98-73.14 119.09-106.19 12.03 9.15 26.89 14.75 43.18 14.75 11.74 0 22.67-3.07 32.45-8.05 54.87 62.89 106.05 144.99 136.77 249.41-11.36 7.52-20.42 18.2-26.07 30.75-127.53-14.61-226.39-60.59-300.72-114.19 3.88-8.86 6.13-18.58 6.13-28.93 0-13.79-4.07-26.58-10.83-37.55z m-0.72-256.31c24.49 13.13 58.85 33.87 97.39 63.95-3.98 8.91-6.28 18.73-6.28 29.07 0 5.84 0.86 11.4 2.21 16.86-51.71 36.07-94.65 75.68-130.21 116.39-7.38-2.58-15.19-4.26-23.43-4.26-13.08 0-25.21 3.78-35.75 9.92-30.48-33.87-52-64.81-66.09-87.66 39-62.31 95.26-112.61 162.16-144.27zM127.27 512.02c0-55.08 11.84-107.39 32.83-154.81 15.15 22.22 35.13 48.47 60.53 76.21-2.97 7.85-4.79 16.24-4.79 25.1 0 16.67 5.89 31.76 15.38 43.93-35.8 61.4-57.94 119.17-71.17 164.29-20.95-47.42-32.78-99.68-32.78-154.72zM193.93 728c8.72-42.39 29.95-117.36 77.64-199.6 5.22 1.2 10.59 1.96 16.15 1.96 11.55 0 22.29-2.92 31.92-7.76 79.17 58.43 185.23 109.02 321.86 125.88-71.21 44.45-183.55 124.01-262.43 223.93C303.39 844.4 238.69 793.67 193.93 728zM707.2 842.77c-57.32 33.91-123.93 53.74-195.2 53.74-28.71 0-56.55-3.36-83.44-9.34 75.67-89.62 180.53-162.04 244.8-201.84 9.15 7.76 20.03 13.51 32.25 15.95 4.46 43.97 5.03 91.19 1.59 141.49z m49.11-33.96c1.2-40 0.58-78.65-3.11-114.72a71.475 71.475 0 0 0 34.75-41.53c27.36-1.53 55.69-4.51 85.02-8.77-23.82 64.91-64.23 121.81-116.66 165.02z m30.25-204.15c-9.64-24.52-32.3-42.15-59.52-44.93-33.31-114.91-89.81-205.01-150.2-273.27 3.88-8.81 6.09-18.54 6.09-28.79 0-2.78-0.53-5.41-0.81-8.14 44.71-20.64 94.36-38.51 149.76-52.59 99.49 69.55 164.86 184.75 164.86 315.08 0 27.93-3.21 55.13-8.87 81.38-35.37 5.99-68.92 9.44-101.31 11.26z" p-id="32300"></path></svg>