<svg xmlns="http://www.w3.org/2000/svg" width="20" height="20" viewBox="0 0 20 20">
  <defs>
    <style>
      .cls-1 {
        fill: #ff4d4f;
      }
    </style>
  </defs>
  <g id="通知--审核失败" transform="translate(-1414 -308)">
    <rect id="矩形_182" data-name="矩形 182" class="cls-1" width="20" height="20" rx="2" transform="translate(1414 308)"/>
    <path id="联合_22" data-name="联合 22" class="cls-2" d="M1015.332-14995.944l-3.625-3.624-3.624,3.624a.51.51,0,0,1-.727,0,.512.512,0,0,1,0-.724l3.625-3.625-3.625-3.624a.516.516,0,0,1,0-.727.517.517,0,0,1,.727,0l3.624,3.625,3.625-3.625a.512.512,0,0,1,.723,0,.516.516,0,0,1,0,.727l-3.624,3.624,3.624,3.625a.506.506,0,0,1,0,.724.505.505,0,0,1-.362.152A.505.505,0,0,1,1015.332-14995.944Z" transform="translate(412.293 15317.294)"/>
  </g>
</svg>
