<svg xmlns="http://www.w3.org/2000/svg" width="15.998" height="17.998" viewBox="0 0 15.998 17.998">
  <defs>
    <style>
      .cls-1 {
        fill: #ccccd2;
      }
    </style>
  </defs>
  <path id="已通知消息" class="cls-1" d="M1054.222-15074.778v-.022h3.556v.022A1.78,1.78,0,0,1,1056-15073,1.779,1.779,0,0,1,1054.222-15074.778Zm-5.321-.924a.9.9,0,0,1-.9-.9.9.9,0,0,1,.9-.9h.879v-5.477a6.226,6.226,0,0,1,4.886-6.079v-.609A1.333,1.333,0,0,1,1056-15091a1.33,1.33,0,0,1,1.333,1.333v.609a6.224,6.224,0,0,1,4.89,6.079v5.477h.879a.9.9,0,0,1,.9.9.9.9,0,0,1-.9.9Z" transform="translate(-1047.999 15091)"/>
</svg>
