<svg xmlns="http://www.w3.org/2000/svg" width="17.999" height="20" viewBox="0 0 17.999 20">
  <defs>
    <style>
      .cls-1 {
        fill: #ccccd2;
      }

      .cls-2 {
        fill: #ff4d4f;
        stroke: #ff4d4f;
      }

      .cls-3 {
        stroke: none;
      }

      .cls-4 {
        fill: none;
      }
    </style>
  </defs>
  <g id="通知" transform="translate(-1679 -31)">
    <path id="通知-2" data-name="通知" class="cls-1" d="M7,18h4a2,2,0,0,1-4,0ZM1,17a1,1,0,0,1,0-2H2V9A7,7,0,0,1,7.5,2.161V1.5a1.5,1.5,0,1,1,3,0v.661A7,7,0,0,1,16,9v6h1a1,1,0,0,1,0,2Z" transform="translate(1679 31)"/>
    <g id="椭圆_17" data-name="椭圆 17" class="cls-2" transform="translate(1686.999 34)">
      <circle class="cls-3" cx="5" cy="5" r="5"/>
      <circle class="cls-4" cx="5" cy="5" r="4.5"/>
    </g>
  </g>
</svg>
