<?xml version="1.0" standalone="no"?><!DOCTYPE svg PUBLIC "-//W3C//DTD SVG 1.1//EN" "http://www.w3.org/Graphics/SVG/1.1/DTD/svg11.dtd"><svg t="1596873156483" class="icon" viewBox="0 0 1024 1024" version="1.1" xmlns="http://www.w3.org/2000/svg" p-id="26048" xmlns:xlink="http://www.w3.org/1999/xlink" width="50" height="50"><defs><style type="text/css"></style></defs><path d="M518.4 937.6C283.36 937.6 92.8 747.04 92.8 512S283.36 86.4 518.4 86.4c235.04 0 425.6 190.56 425.6 425.6s-190.56 425.6-425.6 425.6z m0-83.2c189.088 0 342.4-153.312 342.4-342.4S707.488 169.6 518.4 169.6C329.312 169.6 176 322.912 176 512s153.312 342.4 342.4 342.4z m124.352-346.848a41.6 41.6 0 1 1 54.912 62.528C361.152 865.664 162.688 1000.224 75.968 924.032c-58.496-51.392-35.936-144.672 39.936-259.232a41.6 41.6 0 1 1 69.376 45.952c-54.4 82.176-68.096 138.752-54.4 150.816 30.24 26.56 242.528-117.376 511.872-353.952z m62.336-310.112a41.6 41.6 0 0 1-41.824-71.904c130.048-75.648 222.912-97.152 277.76-42.304 41.248 41.248 46.56 106.912 6.848 177.44-23.712 42.112-54.912 82.048-124.224 163.872l-3.552 4.192c-49.056 57.888-67.584 80.384-88.16 108.064a41.6 41.6 0 1 1-66.784-49.632c22.048-29.664 41.152-52.864 91.488-112.256l3.552-4.192c65.536-77.376 95.104-115.232 115.2-150.912 22.272-39.52 20.256-64.384 6.848-77.792-16.256-16.256-78.848-1.76-177.12 55.392z m-29.088 367.488a41.6 41.6 0 1 1 65.952-50.72c108.704 141.312 174.048 240.192 196.864 313.728 13.728 44.192 3.136 85.92-24.256 112.256a99.264 99.264 0 0 1-33.568 21.248c-54.016 20.864-130.368 1.312-222.976-50.752a41.6 41.6 0 1 1 40.768-72.512c72.8 40.928 127.936 55.04 152.224 45.664a16.64 16.64 0 0 0 5.76-3.52c4.704-4.512 6.976-13.472 2.56-27.712-18.688-60.192-81.44-155.168-183.328-287.648zM180.8 330.432a41.6 41.6 0 1 1-72.864 40.16C38.752 245.12 18.784 146.016 70.112 91.872c90.304-95.264 330.912 41.152 560.512 283.552a1924.16 1924.16 0 0 1 55.072 60.768l43.84 56.768a41.568 41.568 0 1 1-65.856 50.816l-42.176-54.752a1943.168 1943.168 0 0 0-51.296-56.384c-100.672-106.272-206.688-192.896-296-243.52-77.824-44.096-130.912-53.536-143.744-40-16.128 16.992-2.208 86.048 50.304 181.28z" p-id="26049"></path></svg>