<?xml version="1.0" standalone="no"?><!DOCTYPE svg PUBLIC "-//W3C//DTD SVG 1.1//EN" "http://www.w3.org/Graphics/SVG/1.1/DTD/svg11.dtd"><svg t="1596949332120" class="icon" viewBox="0 0 1024 1024" version="1.1" xmlns="http://www.w3.org/2000/svg" p-id="24766" xmlns:xlink="http://www.w3.org/1999/xlink" width="50" height="50"><defs><style type="text/css"></style></defs><path d="M802.127894 386.370765h-32.125537V264.694345c0-146.315513-106.675587-260.93765-258.211949-260.937649-152.137194 0-255.800638 117.060395-255.800638 260.937649v121.675422h-32.125537c-70.877191 0-128.501151 57.166848-128.501151 127.527045v382.584128c0 70.333249 57.62396 127.527045 128.501151 127.527044h578.264659c70.847249 0 128.502149-57.194794 128.502149-127.527044V513.896812c-0.000998-70.360196-57.6549-127.526047-128.503147-127.526047zM320.24284 264.694345c0-108.712626 74.862442-197.171632 191.547568-197.171632 115.539353 0 193.960875 86.595629 193.960874 197.171632v121.675422H320.24284V264.694345z m546.137126 631.787593c0 35.137681-28.856893 63.764021-64.252072 63.764021H223.864233c-35.425122 0-64.251074-28.626341-64.251075-63.764021V513.896812c0-35.164628 28.825953-63.792965 64.251075-63.792965h578.264659c35.39518 0 64.252072 28.628337 64.252072 63.792965v382.585126z m-353.382905-318.822103c-35.511953 0-64.252072 28.5445-64.252072 63.767016 0 23.588137 12.920877 44.184091 32.126535 55.212648v104.182434c0 17.610759 14.368064 31.895983 32.125537 31.895984 17.725536 0 32.124539-14.285225 32.124539-31.895984V696.632512c19.197673-11.031551 32.125537-31.623513 32.125538-55.205661 0-35.222516-28.769063-63.767016-64.250077-63.767016z" p-id="24767"></path></svg>