<?xml version="1.0" standalone="no"?><!DOCTYPE svg PUBLIC "-//W3C//DTD SVG 1.1//EN" "http://www.w3.org/Graphics/SVG/1.1/DTD/svg11.dtd"><svg t="1596949266676" class="icon" viewBox="0 0 1024 1024" version="1.1" xmlns="http://www.w3.org/2000/svg" p-id="22170" xmlns:xlink="http://www.w3.org/1999/xlink" width="50" height="50"><defs><style type="text/css"></style></defs><path d="M510.717414 902.071596c59.889778 0 108.440566-48.550788 108.440566-108.440566s-48.550788-108.440566-108.440566-108.440565-108.440566 48.550788-108.440566 108.440565c0.090505 59.852283 48.588283 108.350061 108.440566 108.440566z m0-134.144c14.189899 0 25.693091 11.503192 25.693091 25.693091s-11.503192 25.693091-25.693091 25.693091-25.693091-11.503192-25.693091-25.693091c0.016808-14.183434 11.509657-25.676283 25.693091-25.693091zM752.174545 7.757576H269.260283C202.002101 7.859717 147.502545 62.355394 147.393939 129.613576v764.617697c0.102141 67.262061 54.604283 121.764202 121.866344 121.866343h286.513131c22.849939 0 41.373737-18.523798 41.373738-41.373737s-18.523798-41.373737-41.373738-41.373738h-286.513131c-21.586747-0.028444-39.080081-17.521778-39.108525-39.108525V129.613576C230.180202 108.026828 247.673535 90.533495 269.260283 90.505051H752.174545c21.586747 0.028444 39.080081 17.521778 39.108526 39.108525v764.617697c-0.028444 21.586747-17.521778 39.080081-39.108526 39.108525h-0.103434l-71.142141 0.175838c-22.849939 0.028444-41.350465 18.575515-41.322021 41.425455 0.028444 22.849939 18.575515 41.350465 41.425455 41.32202h0.103434l71.142142-0.175838h0.082747c67.185778-0.205576 121.572848-54.670222 121.680162-121.856V129.613576C873.932283 62.355394 819.432727 7.859717 752.174545 7.757576z m-59.236848 152.048485c0-22.849939-18.523798-41.373737-41.373737-41.373738H369.870869c-22.849939 0-41.373737 18.523798-41.373738 41.373738s18.523798 41.373737 41.373738 41.373737h281.693091a41.377616 41.377616 0 0 0 41.373737-41.384081v0.010344z" fill="" p-id="22171"></path></svg>