<?xml version="1.0" standalone="no"?><!DOCTYPE svg PUBLIC "-//W3C//DTD SVG 1.1//EN" "http://www.w3.org/Graphics/SVG/1.1/DTD/svg11.dtd"><svg t="1591269024515" class="icon" viewBox="0 0 1024 1024" version="1.1" xmlns="http://www.w3.org/2000/svg" p-id="20603" xmlns:xlink="http://www.w3.org/1999/xlink" width="200" height="200"><defs><style type="text/css"></style></defs><path d="M785.38 896.571H238.819c-43.44 0-78.782-35.341-78.782-78.781V174.772c0-43.44 35.341-78.782 78.782-78.782H785.38c43.44 0 78.781 35.341 78.781 78.782V817.79c0 43.44-35.341 78.781-78.781 78.781zM238.819 159.99c-8.013 0-14.782 6.769-14.782 14.782V817.79c0 8.013 6.769 14.781 14.782 14.781H785.38c8.013 0 14.781-6.769 14.781-14.781V174.772c0-8.013-6.769-14.782-14.781-14.782H238.819z" fill="" p-id="20604"></path><path d="M192.037 729.077h609.539v64H192.037zM296.101 526.092c-17.673 0-32-14.327-32-32V131.109c0-17.673 14.327-32 32-32s32 14.327 32 32v362.982c0 17.674-14.327 32.001-32 32.001z" fill="" p-id="20605"></path><path d="M296.346 532.119c-9.171 0-18.275-3.922-24.604-11.52-11.312-13.579-9.474-33.756 4.104-45.068l115.268-96.022c13.579-11.312 33.757-9.474 45.068 4.105 11.312 13.579 9.474 33.756-4.104 45.068l-115.267 96.023a31.873 31.873 0 0 1-20.465 7.414zM525.596 524.478c-17.673 0-32-14.327-32-32V129.496c0-17.673 14.327-32 32-32 17.673 0 32 14.327 32 32v362.982c0 17.673-14.327 32-32 32z" fill="" p-id="20606"></path><path d="M525.351 530.505a31.869 31.869 0 0 1-20.464-7.414l-115.268-96.022c-13.579-11.312-15.417-31.489-4.104-45.068 11.312-13.579 31.49-15.416 45.068-4.105l115.267 96.022c13.579 11.312 15.417 31.489 4.105 45.068-6.329 7.597-15.434 11.519-24.604 11.519z" fill="" p-id="20607"></path></svg>