<?xml version="1.0" standalone="no"?><!DOCTYPE svg PUBLIC "-//W3C//DTD SVG 1.1//EN" "http://www.w3.org/Graphics/SVG/1.1/DTD/svg11.dtd"><svg t="1596385103418" class="icon" viewBox="0 0 1024 1024" version="1.1" xmlns="http://www.w3.org/2000/svg" p-id="23236" xmlns:xlink="http://www.w3.org/1999/xlink" width="100" height="100"><defs><style type="text/css"></style></defs><path d="M1008.725252 41.77849a35.532196 35.532196 0 0 0-26.521149-26.521149c-193.942303-44.543243-405.497107 8.447856-556.176145 159.229293-21.247639 21.247639-40.856905 44.082451-58.623004 68.299639a35.941789 35.941789 0 0 1-20.479652 13.670167 466.116876 466.116876 0 0 0-217.596301 123.594699A476.305503 476.305503 0 0 0 56.319043 474.001542c-17.202908 29.081106 12.287791 63.384522 44.031251 51.711121a461.20176 461.20176 0 0 1 159.741284-27.64753c-0.767987 4.761519-1.894368 9.471839-2.559956 14.182159a2402.263162 2402.263162 0 0 0 122.263521 131.991356 2395.760872 2395.760872 0 0 0 131.991357 122.263521c4.71032-0.665589 9.42064-1.79197 14.130959-2.559956a461.20176 461.20176 0 0 1-27.59633 159.741284c-11.673402 31.74346 22.578816 61.234159 51.71112 44.031252a476.407901 476.407901 0 0 0 93.950403-73.061158 466.168075 466.168075 0 0 0 123.594699-217.596301 36.044187 36.044187 0 0 1 13.618969-20.479652c24.268387-17.766098 47.103199-37.375365 68.350838-58.571804 150.781437-150.781437 203.772536-362.285041 159.229293-556.227344z m-242.93987 386.963021a120.57395 120.57395 0 1 1-170.544301-170.5443 120.57395 120.57395 0 0 1 170.544301 170.493101zM140.746407 738.393847c-33.125837 33.177036-173.616249 238.485546-133.629728 278.523265 39.935321 39.935321 245.29503-100.555091 278.472066-133.629728 33.125837-33.177036 27.545132-92.465628-12.441389-132.452148-39.98652-39.98652-99.326311-45.567225-132.400949-12.441389z" p-id="23237"></path></svg>