<?xml version="1.0" encoding="UTF-8"?>
<svg width="36px" height="36px" viewBox="0 0 36 36" version="1.1" xmlns="http://www.w3.org/2000/svg" xmlns:xlink="http://www.w3.org/1999/xlink">
    <!-- Generator: Sketch 60 (88103) - https://sketch.com -->
    <title>认证管理_选中</title>
    <desc>Created with Sketch.</desc>
    <g id="页面-1" stroke="none" stroke-width="1" fill="none" fill-rule="evenodd">
        <g id="平台侧边导航" transform="translate(-43.000000, -661.000000)">
            <rect fill="#2A2B3D" x="0" y="0" width="1920" height="1080"></rect>
            <rect id="矩形备份-6" stroke="#191B28" fill="#242635" x="0.5" y="0.5" width="231" height="1079"></rect>
            <g id="选中备份-9" transform="translate(0.000000, 642.000000)" fill="#313447" stroke="#313447">
                <rect id="矩形备份-8" x="0.5" y="0.5" width="231" height="73"></rect>
            </g>
            <g id="认证管理_选中-2" transform="translate(43.000000, 661.000000)">
                <g id="认证管理_选中">
                    <rect id="矩形" fill="#313447" x="0" y="0" width="36" height="36"></rect>
                    <path d="M32.4008944,3.60088342 L27.0004472,3.60088342 L27.0004472,1.35165645 C27.0033037,0.995843478 26.8626913,0.653533593 26.6096436,0.400275928 C26.356596,0.147018263 26.0119164,0.0036333695 25.651677,0.00176685391 C25.2911269,0.00316516278 24.9459874,0.146343827 24.692553,0.399652591 C24.4391186,0.652961356 24.2982612,0.995538704 24.301118,1.35165645 L24.301118,3.60088342 L11.7006708,3.60088342 L11.7006708,1.35165645 C11.7040061,0.995233923 11.5633605,0.652201194 11.3098742,0.398508974 C11.056388,0.144816755 10.7109746,0.00139548551 10.3501118,0 C9.98987242,0.00186651564 9.64519285,0.145251404 9.3921452,0.398509061 C9.13909755,0.651766718 8.99848511,0.994076592 9.0013416,1.34988956 L9.0013416,3.59911657 L3.60089441,3.59911657 C1.61172673,3.59911657 0,5.21050309 0,7.19999999 L0,32.3991166 C0,34.3886135 1.61172673,36 3.60089441,36 L32.4008944,36 C34.3900621,36 36,34.3886135 36,32.3991166 L36,7.20176688 C36,5.21226994 34.3900621,3.60088346 32.4008944,3.60088342 Z M33.3006708,31.4997792 C33.3006708,32.4945276 32.493913,33.3019877 31.501118,33.3019877 L4.50067082,33.3019877 C3.50029519,33.2942093 2.69516745,32.4878934 2.70108522,31.4997792 L2.70108522,8.10287119 C2.70108522,7.10988961 3.50787576,6.30242947 4.50067082,6.30242944 L9.00313044,6.30242944 L9.00313044,8.55165644 C9.00313044,9.29904294 9.60596273,9.90154601 10.3519006,9.90154601 C10.7124507,9.90014771 11.0575902,9.75696905 11.3110246,9.5036603 C11.564459,9.25035154 11.7053164,8.90777419 11.7024596,8.55165644 L11.7024596,6.30066258 L24.3029068,6.30066258 L24.3029068,8.55165644 C24.3029068,9.29904294 24.9057391,9.90154601 25.6534658,9.90154601 C26.0137052,9.89967948 26.3583848,9.75629459 26.6114324,9.50303693 C26.8644801,9.24977928 27.0050925,8.90746941 27.002236,8.55165644 L27.002236,6.30066258 L31.5029068,6.30066258 C32.4957018,6.30066258 33.3024596,7.10812272 33.3024596,8.10110429 L33.3024596,31.501546 L33.3006708,31.4997792 Z M15.7881242,23.2520246 C17.1811743,22.2296535 18.0019068,20.6161933 18.0008944,18.9019877 C18.0008944,15.9195092 15.5824099,13.4988957 12.6004472,13.4988957 C9.62027331,13.4988957 7.20178882,15.9195092 7.20178882,18.9002209 C7.20178882,20.6865276 8.07294408,22.2661104 9.41455899,23.2502577 C7.24389013,24.3328366 5.76351213,26.4141383 5.46842234,28.7982332 L8.19279504,28.7982332 C8.61137887,26.7468957 10.4288199,25.1991166 12.6004472,25.1991166 C14.7738633,25.1991166 16.594882,26.7468957 17.0080994,28.8 L19.732472,28.8 C19.4404635,26.4147362 17.9591623,24.3321367 15.7863354,23.2520246 L15.7881242,23.2520246 Z M12.6004472,21.6017669 C11.1001732,21.5920382 9.89140051,20.3838648 9.89928013,18.9019877 C9.89040931,17.4194225 11.0994708,16.2101694 12.6004472,16.2004417 C14.092323,16.2004417 15.301604,17.4107485 15.301604,18.9019877 C15.3094939,20.3838647 14.1007212,21.5920382 12.6004472,21.6017669 L12.6004472,21.6017669 Z M27.4512298,23.4004417 L24.7501118,23.4004417 C24.3898724,23.4023082 24.0451928,23.5456931 23.7921452,23.7989508 C23.5390975,24.0522084 23.3984851,24.3945183 23.4012989,24.7503313 C23.4012989,25.4977178 24.0041739,26.1019877 24.7501118,26.1019877 L27.4512298,26.1019877 C27.8120926,26.1005923 28.157506,25.957171 28.4109923,25.7034788 C28.6644785,25.4497866 28.8051241,25.1067538 28.8017888,24.7503313 C28.8046456,24.3942135 28.6637882,24.0516362 28.4103538,23.7983274 C28.1569194,23.5450187 27.8117799,23.40184 27.4512298,23.4004417 Z M29.2507826,16.2004417 L22.950559,16.2004417 C22.5900089,16.20184 22.2448694,16.3450187 21.991435,16.5983275 C21.7380006,16.8516362 21.5971433,17.1942136 21.5999574,17.5503313 C21.5999574,18.2977178 22.2028323,18.9019877 22.950559,18.9019877 L29.2507826,18.9019877 C29.6116454,18.9005923 29.9570588,18.757171 30.2105451,18.5034788 C30.4640313,18.2497866 30.6046769,17.9067538 30.6013996,17.5503313 C30.6041984,17.1942136 30.463341,16.8516362 30.2099066,16.5983275 C29.9564722,16.3450187 29.6113327,16.20184 29.2507826,16.2004417 L29.2507826,16.2004417 Z" id="形状" fill="#FFFFFF" fill-rule="nonzero"></path>
                </g>
            </g>
        </g>
    </g>
</svg>