<?xml version="1.0" encoding="UTF-8"?>
<svg width="36px" height="36px" viewBox="0 0 36 36" version="1.1" xmlns="http://www.w3.org/2000/svg" xmlns:xlink="http://www.w3.org/1999/xlink">
    <!-- Generator: Sketch 60 (88103) - https://sketch.com -->
    <title>客服管理_选中</title>
    <desc>Created with Sketch.</desc>
    <g id="页面-1" stroke="none" stroke-width="1" fill="none" fill-rule="evenodd">
        <g id="平台侧边导航" transform="translate(-43.000000, -883.000000)">
            <rect fill="#2A2B3D" x="0" y="0" width="1920" height="1080"></rect>
            <rect id="矩形备份-6" stroke="#191B28" fill="#242635" x="0.5" y="0.5" width="231" height="1079"></rect>
            <g id="选中备份-10" transform="translate(0.000000, 864.000000)" fill="#313447" stroke="#313447">
                <rect id="矩形备份-8" x="0.5" y="0.5" width="231" height="73"></rect>
            </g>
            <g id="客服管理_选中-2" transform="translate(43.000000, 883.000000)">
                <g id="客服管理_选中">
                    <rect id="矩形" fill="#313447" x="0" y="0" width="36" height="36"></rect>
                    <path d="M35.2532522,29.3522729 L34.7842846,31.1629201 C34.61187,31.8309258 33.9429015,32.2246976 33.2911744,32.041875 L32.8946209,31.9328846 C32.7291029,32.1614129 32.5497917,32.3829095 32.3463425,32.5903429 C32.2497904,32.6887858 32.1428934,32.7661339 32.0428929,32.8575452 C32.0566861,32.8891876 32.0808241,32.9173141 32.091169,32.9524723 L32.2532387,33.5536775 C32.4325498,34.2181675 32.0497895,34.9002365 31.4015107,35.0725117 L29.6428821,35.5436315 C28.9946033,35.7159067 28.3256347,35.3186191 28.1463236,34.6541291 L28.0497714,34.2884838 C27.3359751,34.2603573 26.6256271,34.1126928 25.9566585,33.817364 L25.6601055,34.1197245 C25.1842412,34.6084235 24.411824,34.6049076 23.9325115,34.1162087 L22.6359538,32.7872288 C22.1566413,32.2985299 22.1566413,31.5074704 22.6325056,31.0187715 L22.9290586,30.716411 C22.7014714,30.1820063 22.5600914,29.622991 22.4911256,29.0534282 L22.0842272,28.940922 C21.4325002,28.7616152 21.0428432,28.0725145 21.2187061,27.4080246 L21.6807771,25.5973774 C21.8531917,24.9293716 22.5221602,24.5355998 23.1738873,24.7184224 L23.5704408,24.8274128 C23.7359588,24.5988846 23.91527,24.3773879 24.1187192,24.1699546 C24.4256171,23.8535308 24.766998,23.5968759 25.122172,23.3683476 L25.0773442,23.2066199 C24.898033,22.54213 25.2807934,21.860061 25.9290722,21.6877858 L27.6877008,21.216666 C28.3359796,21.0443908 29.0049481,21.4416784 29.1842593,22.1061684 L29.3083978,22.5772882 C29.7187445,22.658152 30.1221946,22.7706583 30.5118515,22.9429334 L30.8084046,22.6405729 C31.2842688,22.151874 32.0566861,22.1553898 32.5359986,22.6440888 L33.8325562,23.9730686 C34.3118687,24.4617676 34.3118687,25.252827 33.8360045,25.741526 L33.5394514,26.0438865 C33.7670386,26.5782911 33.9084186,27.1373064 33.9773844,27.7068692 L34.3842828,27.8193755 C35.0360099,27.9986823 35.4256668,28.687783 35.2532522,29.3522729 Z M28.2290826,24.7781914 C26.2807979,24.7781914 24.7014804,26.3884368 24.7014804,28.374875 C24.7014804,30.3613131 26.2807979,31.9715586 28.2290826,31.9715586 C30.1773672,31.9715586 31.7566903,30.3613132 31.7566903,28.374875 C31.760133,26.3884368 30.1773672,24.7781914 28.2290826,24.7781914 Z M24.2835064,20.775753 C23.74866,20.5096621 24.1474645,20.7191001 23.617348,20.4304287 C21.6276839,19.3370088 19.3552598,18.7182245 16.9380075,18.7182245 C9.14142056,18.7182245 2.82070238,25.1627221 2.82070238,33.1119985 C0.290394503,33.1119985 2.82222613,33.1103372 -0.000108829362,33.1119985 C-0.000108829362,25.5564939 4.76553878,19.1506703 11.3966032,16.8056185 C9.19314496,15.0969301 7.7655523,12.4002963 7.7655523,9.35911224 C7.7655523,4.19085718 11.8724674,0 16.9414558,0 C22.0104443,0 26.1173593,4.19085715 26.1173593,9.35911224 C26.1173593,12.4002963 24.6897667,15.0934143 22.4863084,16.8056185 C23.4759681,17.1572005 24.4207999,17.6072254 25.3173557,18.1275667 L25.3070109,18.1381142 C25.7794268,18.3701583 27.4744602,19.723637 27.4427614,19.7886664 C27.0322689,19.808709 25.9791839,20.1377379 24.2835064,20.775753 Z M23.2897604,9.36262805 C23.2897604,5.78703933 20.4449199,2.88648806 16.9380075,2.88648806 C13.4310951,2.88648806 10.5862547,5.78703937 10.5862547,9.36262805 C10.5862547,12.9382168 13.4310951,15.8387681 16.9380075,15.8387681 C20.4449199,15.8387681 23.2897604,12.9382168 23.2897604,9.36262805 Z" id="形状" fill="#FFFFFF" fill-rule="nonzero"></path>
                </g>
            </g>
        </g>
    </g>
</svg>