<?xml version="1.0" encoding="UTF-8"?>
<svg width="36px" height="36px" viewBox="0 0 36 36" version="1.1" xmlns="http://www.w3.org/2000/svg" xmlns:xlink="http://www.w3.org/1999/xlink">
    <!-- Generator: Sketch 60 (88103) - https://sketch.com -->
    <title>任务管理_选中</title>
    <desc>Created with Sketch.</desc>
    <g id="页面-1" stroke="none" stroke-width="1" fill="none" fill-rule="evenodd">
        <g id="平台侧边导航" transform="translate(-43.000000, -192.000000)">
            <rect fill="#2A2B3D" x="0" y="0" width="1920" height="1080"></rect>
            <rect id="矩形备份-6" stroke="#191B28" fill="#242635" x="0.5" y="0.5" width="231" height="1079"></rect>
            <g id="选中备份-4" transform="translate(0.000000, 168.000000)" fill="#313447" stroke="#313447">
                <rect id="矩形备份-8" x="0.5" y="0.5" width="231" height="83"></rect>
            </g>
            <g id="任务管理_选中-2" transform="translate(43.000000, 192.000000)">
                <g id="任务管理_选中">
                    <rect id="bg" fill="#313447" x="0" y="0" width="36" height="36"></rect>
                    <path d="M30.3509587,35.9984188 L5.64904131,35.9984188 C4.28508312,35.9984188 3.17647059,34.8757726 3.17647059,33.5001358 L3.17647059,3.56185018 C3.17647059,2.18146973 4.28666913,1.05882353 5.64904131,1.05882353 L11.6282534,1.05882353 C12.2737545,1.05882353 12.7907899,1.5837792 12.7907899,2.23523023 L12.7907899,4.10578015 C12.7907899,4.18167735 12.8542298,4.25599336 12.9382877,4.25599336 L23.0601263,4.25599336 C23.1346682,4.25599336 23.2076241,4.19274567 23.2076241,4.10578015 L23.2076241,2.23523023 C23.2076241,1.5837792 23.7262454,1.05882353 24.3701606,1.05882353 L30.3493727,1.05882353 C31.7133309,1.05882353 32.8235294,2.1814697 32.8235294,3.56185018 L32.8235294,33.5096229 C32.8124274,34.8884221 31.7133309,36 30.3493727,36 L30.3509587,35.9984188 Z M5.44406336,3.17807563 C5.36047397,3.18067726 5.29411765,3.2489065 5.29411765,3.33215878 L5.29411765,33.7314798 C5.29411765,33.8069164 5.35861045,33.8823529 5.44406336,33.8823529 L30.5559367,33.8823529 C30.6301034,33.8823529 30.7058824,33.8181516 30.7058824,33.7298748 L30.7058824,3.33055374 C30.7042055,3.24854968 30.6382903,3.18222681 30.5559367,3.17968064 L25.6577106,3.17968064 L25.6577106,3.88429005 C25.6577106,5.28387863 24.5290871,6.42345194 23.1441048,6.42345194 L12.8542829,6.42345194 C11.4676883,6.42345194 10.3406771,5.28387867 10.3406771,3.882685 L10.3406771,3.17647059 L5.44567569,3.17647059 L5.44406336,3.17807563 Z" id="形状" fill="#FFFFFF" fill-rule="nonzero"></path>
                    <path d="M26.329732,12.7058824 L9.65874204,12.7058824 C9.338074,12.7021049 9.03238976,12.5882353 8.80941127,12.3894835 C8.58643278,12.1907379 8.46456874,11.9235304 8.4708172,11.6470588 C8.4708172,11.0601023 8.99971068,10.5882353 9.65874204,10.5882353 L26.341411,10.5882353 C27.0004424,10.5882353 27.5294118,11.0601023 27.5294118,11.6470588 C27.5367517,12.2249335 26.9999107,12.6987732 26.329732,12.7058824 L26.329732,12.7058824 Z M26.329732,19.0588235 L9.65874204,19.0588235 C9.338074,19.0550461 9.03238976,18.9411765 8.80941127,18.7424247 C8.58643278,18.5436791 8.46456874,18.2764716 8.4708172,18 C8.4708172,17.4130435 8.99971068,16.9411765 9.65874204,16.9411765 L26.341411,16.9411765 C27.0004424,16.9411765 27.5294118,17.4130435 27.5294118,18 C27.5367517,18.5778747 26.9999107,19.0517144 26.329732,19.0588235 L26.329732,19.0588235 Z M26.329732,25.4117647 L9.65874204,25.4117647 C9.338074,25.4079872 9.03238976,25.2941176 8.80941127,25.0953659 C8.58643278,24.8966203 8.46456874,24.6294128 8.4708172,24.3529412 C8.4708172,23.7659846 8.99971068,23.2941176 9.65874204,23.2941176 L26.341411,23.2941176 C27.0004424,23.2941176 27.5294118,23.7659847 27.5294118,24.3529412 C27.5367517,24.9308159 26.9999107,25.4046556 26.329732,25.4117647 Z M20.7631059,2.11764706 L15.2385882,2.11764706 C14.4220235,2.11764706 13.7647059,1.64578004 13.7647059,1.05882355 C13.7647059,0.471867055 14.4220235,0 15.2385882,0 L20.7614118,0 C21.5779765,0 22.2352941,0.471867021 22.2352941,1.05882355 C22.2352941,1.64578007 21.5779765,2.11764706 20.7614118,2.11764706 L20.7631059,2.11764706 Z" id="形状" fill="#FFFFFF" fill-rule="nonzero"></path>
                </g>
            </g>
        </g>
    </g>
</svg>