<?xml version="1.0" encoding="UTF-8"?>
<svg width="36px" height="36px" viewBox="0 0 36 36" version="1.1" xmlns="http://www.w3.org/2000/svg" xmlns:xlink="http://www.w3.org/1999/xlink">
    <!-- Generator: Sketch 60 (88103) - https://sketch.com -->
    <title>企业管理_选中</title>
    <desc>Created with Sketch.</desc>
    <g id="页面-1" stroke="none" stroke-width="1" fill="none" fill-rule="evenodd">
        <g id="平台侧边导航" transform="translate(-43.000000, -276.000000)">
            <rect fill="#2A2B3D" x="0" y="0" width="1920" height="1080"></rect>
            <rect id="矩形备份-6" stroke="#191B28" fill="#242635" x="0.5" y="0.5" width="231" height="1079"></rect>
            <g id="选中备份-3" transform="translate(0.000000, 252.000000)" fill="#313447" stroke="#313447">
                <rect id="矩形备份-8" x="0.5" y="0.5" width="231" height="83"></rect>
            </g>
            <g id="企业管理_选中-2" transform="translate(43.000000, 276.000000)">
                <g id="企业管理_选中">
                    <rect id="bg" fill="#313447" x="0" y="0" width="36" height="36"></rect>
                    <path d="M21.3781513,0.0588235294 C22.9397779,0.0588235294 24.2010984,1.31289218 24.2892009,2.87689728 L24.2941176,3.05190311 L24.2941176,13.205124 L22.2941176,13.205124 L22.2941176,3.05190311 C22.2941176,2.53459762 21.9327396,2.12172452 21.4833055,2.06538197 L21.3781513,2.05882353 L5.09243697,2.05882353 C4.63107315,2.05882353 4.23674051,2.43474624 4.18276118,2.9344935 L4.17647059,3.05190311 L4.17647059,32.9480969 C4.17647059,33.4654024 4.53784867,33.8782755 4.98728271,33.934618 L5.09243697,33.9411765 L21.3781513,33.9411765 C21.8395151,33.9411765 22.2338477,33.5652538 22.2878271,33.0655065 L22.2941176,32.9480969 L24.2941176,32.9480969 C24.2941176,34.5337651 23.0885695,35.8444648 21.5503852,35.9360637 L21.3781513,35.9411765 L5.09243697,35.9411765 C3.53081031,35.9411765 2.2694898,34.6871078 2.18138734,33.1231027 L2.17647059,32.9480969 L2.17647059,3.05190311 C2.17647059,1.46623487 3.38201873,0.155535207 4.92020308,0.0639363389 L5.09243697,0.0588235294 L21.3781513,0.0588235294 Z" id="路径" fill="#FFFFFF" fill-rule="nonzero"></path>
                    <path d="M25.4716981,36 L0.998890122,36 C0.447218341,36 0,35.5259486 0,34.9411765 C0,34.3564044 0.447218341,33.8823529 0.998890122,33.8823529 L25.4716981,33.8823529 C26.0233699,33.8823529 26.4705882,34.3564044 26.4705882,34.9411765 C26.4705882,35.5259486 26.0233699,36 25.4716981,36 L25.4716981,36 Z" id="路径" fill="#FFFFFF" fill-rule="nonzero"></path>
                    <path d="M24.3529412,34.9411765 C17.9305923,34.9411765 12.7058824,29.7160649 12.7058824,23.2941176 C12.7058824,16.8717688 17.9305923,11.6470588 24.3529412,11.6470588 C30.7748884,11.6470588 36,16.8717688 36,23.2941176 C36,29.7160649 30.7748884,34.9411765 24.3529412,34.9411765 Z M24.3529412,13.7647059 C19.0984235,13.7647059 14.8235294,18.0396 14.8235294,23.2941176 C14.8235294,28.5486353 19.0984235,32.8235294 24.3529412,32.8235294 C29.6074588,32.8235294 33.8823529,28.5486353 33.8823529,23.2941176 C33.8823529,18.0396 29.6074588,13.7647059 24.3529412,13.7647059 Z M18.9705882,8.41176471 L7.5,8.41176471 C6.8664969,8.41176471 6.35294118,7.93771326 6.35294118,7.35294118 C6.35294118,6.76816909 6.8664969,6.29411765 7.5,6.29411765 L18.9705882,6.29411765 C19.6040913,6.29411765 20.1176471,6.76816909 20.1176471,7.35294118 C20.1176471,7.93771326 19.6040913,8.41176471 18.9705882,8.41176471 L18.9705882,8.41176471 Z M12.1176471,15.8823529 L8,15.8823529 C7.09035453,15.8823529 6.35294118,15.4083015 6.35294118,14.8235294 C6.35294118,14.2387573 7.09035453,13.7647059 8,13.7647059 L12.1176471,13.7647059 C13.0272925,13.7647059 13.7647059,14.2387573 13.7647059,14.8235294 C13.7647059,15.4083015 13.0272925,15.8823529 12.1176471,15.8823529 L12.1176471,15.8823529 Z" id="形状" fill="#FFFFFF" fill-rule="nonzero"></path>
                    <path d="M29.4677894,13.6103853 C28.9432172,13.6103853 28.5179674,13.2251479 28.5179674,12.7499334 L28.5179674,7.01502146 L24.7186794,7.01502146 C24.1941072,7.01502146 23.7688574,6.62978402 23.7688574,6.15456955 C23.7688574,5.67935509 24.1941072,5.29411765 24.7186794,5.29411765 L29.4677894,5.29411765 C29.9923616,5.29411765 30.4176114,5.67935509 30.4176114,6.15456955 L30.4176114,12.7499334 C30.4176114,13.2251479 29.9923616,13.6103853 29.4677894,13.6103853 L29.4677894,13.6103853 Z M17.8911309,29.6470583 C17.5985437,29.6473576 17.3221662,29.5253601 17.1421176,29.316431 C16.962069,29.107502 16.898487,28.8350093 16.9698035,28.5779462 L18.3128518,23.7108 C18.3546059,23.5595299 18.4409499,23.4213813 18.562655,23.3111201 L25.2783715,17.2268647 C25.9964369,16.576363 26.9505331,16.218415 27.9654179,16.218415 C28.9803027,16.218415 29.9343989,16.5767933 30.6515145,17.2268647 C31.3695799,17.8769361 31.7647059,18.74126 31.7647059,19.6606529 C31.7647059,20.5800458 31.3695799,21.4443697 30.6515145,22.0940109 L23.9353232,28.1782663 C23.8137415,28.2886769 23.6611932,28.3669228 23.4941308,28.4045652 L18.1214627,29.6212442 C18.045002,29.6388834 17.9680665,29.6470583 17.8911309,29.6470583 L17.8911309,29.6470583 Z M20.0918684,24.3595808 L19.1961863,27.6039147 L22.7779651,26.7929387 L29.3084662,20.8773319 C29.6674989,20.5520811 29.8650619,20.1201342 29.8650619,19.6606529 C29.8650619,19.2011716 29.6674989,18.7687945 29.3084662,18.4439739 C28.5899259,17.793042 27.3390103,17.7939025 26.6214198,18.4439739 L20.0918684,24.3595808 L20.0918684,24.3595808 Z" id="形状" fill="#FFFFFF" fill-rule="nonzero"></path>
                </g>
            </g>
        </g>
    </g>
</svg>