<?xml version="1.0" encoding="UTF-8"?>
<svg width="36px" height="36px" viewBox="0 0 36 36" version="1.1" xmlns="http://www.w3.org/2000/svg" xmlns:xlink="http://www.w3.org/1999/xlink">
    <!-- Generator: Sketch 60 (88103) - https://sketch.com -->
    <title>管理员设置_选中</title>
    <desc>Created with Sketch.</desc>
    <g id="页面-1" stroke="none" stroke-width="1" fill="none" fill-rule="evenodd">
        <g id="平台侧边导航" transform="translate(-42.000000, -957.000000)">
            <rect fill="#2A2B3D" x="0" y="0" width="1920" height="1080"></rect>
            <rect id="矩形备份-6" stroke="#191B28" fill="#242635" x="0.5" y="0.5" width="231" height="1079"></rect>
            <g id="选中备份-11" transform="translate(0.000000, 938.000000)" fill="#313447" stroke="#313447">
                <rect id="矩形备份-8" x="0.5" y="0.5" width="231" height="73"></rect>
            </g>
            <g id="管理员设置_选中-2" transform="translate(42.000000, 957.000000)">
                <g id="管理员设置_选中">
                    <rect id="矩形" fill="#313447" x="0" y="0" width="36" height="36"></rect>
                    <path d="M12.2374693,3.39305982e-06 L3.97631086,3.39305982e-06 C1.78335448,0.000957071919 0.00477746704,1.776347 2.48689958e-14,3.96919238 L2.48689958e-14,12.2195519 C2.48689958e-14,14.4069372 1.78535317,16.1887375 3.97631086,16.1887375 L12.2374693,16.1887375 C14.4304257,16.1877872 16.2090027,14.4123973 16.2137801,12.2195519 L16.2137801,3.96919238 C16.2133211,2.91543804 15.7940206,1.90507598 15.0482178,1.16060954 C14.3024149,0.416143098 13.2912738,-0.0013731521 12.2374693,3.39305982e-06 Z M13.5686841,12.110356 C13.5686841,12.9007266 12.9273436,13.5420371 12.1334681,13.5420371 L4.09071211,13.5420371 C3.71052881,13.542496 3.34573412,13.3919171 3.07657886,13.1234249 C2.8074236,12.8549328 2.65595561,12.4905209 2.65549617,12.110356 L2.65549617,4.08532141 C2.65549617,3.29321758 3.29856999,2.65190807 4.09071211,2.65190807 L12.1282681,2.65190807 C12.9204102,2.65190807 13.5617507,3.29321754 13.5617507,4.08532141 L13.5617507,12.110356 L13.5686841,12.110356 Z M32.0254225,6.80292373e-06 L23.7625307,6.80292373e-06 C21.570251,0.00191199763 19.7927286,1.77702306 19.7879532,3.96919238 L19.7879532,12.2195519 C19.7879532,14.4069372 21.571573,16.1887375 23.7625307,16.1887375 L32.0254225,16.1887375 C34.2177022,16.1868323 35.9952246,14.4117213 36,12.2195519 L36,3.96919238 C36,1.78180714 34.2146468,6.80292373e-06 32.0254225,6.80292373e-06 L32.0254225,6.80292373e-06 Z M33.3497039,12.2247517 C33.3497039,12.9527246 32.7534306,13.5489691 32.0254225,13.5489691 L23.7625307,13.5489691 C23.0319408,13.5470641 22.4401544,12.9553063 22.4382493,12.2247517 L22.4382493,3.9743922 C22.4382493,3.24815257 23.0345226,2.65190807 23.7625307,2.65190807 L32.0254225,2.65190807 C32.7534306,2.65190807 33.3497039,3.24815254 33.3497039,3.97612547 L33.3497039,12.226485 L33.3497039,12.2247517 Z M12.2374693,19.8112693 L3.97631086,19.8112693 C1.78402939,19.812217 0.00573124215,21.5865534 0,23.7787216 L0,32.0290811 C0,34.2164664 1.78535317,35.9982667 3.97631086,35.9982667 L12.2374693,35.9982667 C14.4304257,35.9973164 16.2090027,34.2219265 16.2137801,32.0290811 L16.2137801,23.7787216 C16.2133211,22.7249673 15.7940206,21.7146052 15.0482178,20.9701388 C14.3024149,20.2256723 13.2912738,19.8081561 12.2374693,19.8095326 L12.2374693,19.8112693 Z M13.5686841,31.9216185 C13.5686841,32.7119891 12.9273436,33.3532996 12.1334681,33.3532996 L4.09071211,33.3532996 C3.71052881,33.3537585 3.34573412,33.2031795 3.07657886,32.9346874 C2.8074236,32.6661952 2.65595561,32.3017834 2.65549617,31.9216185 L2.65549617,23.8965839 C2.65549617,23.1044801 3.29856999,22.4631706 4.09071211,22.4631706 L12.1282681,22.4631706 C12.9204102,22.4631706 13.5617507,23.1044801 13.5617507,23.8965839 L13.5617507,31.9216185 L13.5686841,31.9216185 L13.5686841,31.9216185 Z M32.0254225,19.8112693 L23.7625307,19.8112693 C21.570251,19.8131745 19.7927286,21.5882855 19.7879532,23.7804549 L19.7879532,32.0308144 C19.7879532,34.2181997 21.571573,36 23.7625307,36 L32.0254225,36 C34.2177022,35.9980948 35.9952246,34.2229838 36,32.0308144 L36,23.7804549 C36,21.5930696 34.2146468,19.8112693 32.0254225,19.8112693 L32.0254225,19.8112693 Z M33.3497039,32.0308144 C33.3497039,32.7587873 32.7534306,33.3532985 32.0254225,33.3532985 L23.7625307,33.3532985 C23.0326147,33.3513984 22.4411055,32.760692 22.4382493,32.0308144 L22.4382493,23.7804549 C22.4382493,23.052482 23.0345226,22.4579708 23.7625307,22.4579708 L32.0254225,22.4579708 C32.7534306,22.4579708 33.3497039,23.0542152 33.3497039,23.7804549 L33.3497039,32.0308144 L33.3497039,32.0308144 Z" id="形状" fill="#FFFFFF" fill-rule="nonzero"></path>
                </g>
            </g>
        </g>
    </g>
</svg>