<?xml version="1.0" encoding="UTF-8"?>
<svg width="36px" height="36px" viewBox="0 0 36 36" version="1.1" xmlns="http://www.w3.org/2000/svg" xmlns:xlink="http://www.w3.org/1999/xlink">
    <!-- Generator: Sketch 60 (88103) - https://sketch.com -->
    <title>首页_选中</title>
    <desc>Created with Sketch.</desc>
    <g id="页面-1" stroke="none" stroke-width="1" fill="none" fill-rule="evenodd">
        <g id="平台侧边导航" transform="translate(-43.000000, -108.000000)">
            <rect fill="#2A2B3D" x="0" y="0" width="1920" height="1080"></rect>
            <rect id="矩形备份-6" stroke="#191B28" fill="#242635" x="0.5" y="0.5" width="231" height="1079"></rect>
            <g id="选中备份-6" transform="translate(0.000000, 84.000000)" fill="#313447" stroke="#313447">
                <rect id="矩形备份-8" x="0.5" y="0.5" width="231" height="83"></rect>
            </g>
            <g id="首页_选中-2" transform="translate(43.000000, 108.000000)">
                <g id="首页_选中">
                    <rect id="bg" fill="#313447" x="0" y="0" width="36" height="36"></rect>
                    <path d="M35.5608248,17.08558 L21.1492633,2.33283406 C20.3181752,1.48010348 19.1836753,1 17.9997338,1 C16.8157922,1 15.6812923,1.48010348 14.8502042,2.33283406 L0.440356755,17.08558 C-0.146785585,17.6898313 -0.146785585,18.6584464 0.440356755,19.2626977 C0.72065589,19.5506524 1.10349895,19.7128068 1.50305516,19.7128068 C1.90261136,19.7128068 2.28545442,19.5506524 2.56575356,19.2626977 L2.76286697,19.0598929 L2.76286697,30.4412265 C2.76286697,32.9546187 4.75971154,35 7.21420205,35 L28.7784094,35 C31.2328999,35 33.2297445,32.9546187 33.2297445,30.4412265 L33.2297445,19.0598929 L33.4268579,19.2626977 C33.7075158,19.5512925 34.0910113,19.7138304 34.4912703,19.7138304 C34.8915293,19.7138304 35.2750248,19.5512925 35.5556827,19.2626977 C36.1460972,18.6606343 36.1483886,17.6904887 35.5608248,17.08558 Z M30.2302092,30.4412265 C30.2339928,31.2536032 29.5868512,31.9158024 28.7835515,31.9215278 L7.21763012,31.9215278 C6.41500149,31.9148522 5.76889875,31.2529318 5.77268637,30.4412265 L5.77268637,15.9848875 L16.9807431,4.5099518 C17.2508721,4.23376813 17.6190342,4.07835454 18.0031618,4.07835454 C18.3872895,4.07835454 18.7554516,4.23376813 19.0255805,4.5099518 L30.2284785,15.9848875 L30.2284785,30.4412265 L30.2302092,30.4412265 Z M11.5318428,19.6891077 C11.3482497,19.3295716 11.029915,19.0593724 10.6479422,18.9388624 C10.2659694,18.8183523 9.85218188,18.8575713 9.49900361,19.0477593 C8.7639383,19.4520554 8.48483635,20.3774714 8.87166875,21.1278081 C10.7965241,24.8510954 14.2057291,27.0732808 17.9988767,27.0732808 C21.7920244,27.0732808 25.2012295,24.8510954 27.1260848,21.1278081 C27.5149017,20.3776582 27.2353588,19.4507804 26.4987499,19.0477593 C26.145756,18.8566025 25.7316258,18.8168592 25.3493775,18.9374562 C24.9671292,19.0580532 24.6488074,19.3288806 24.4659107,19.6891077 C23.0724046,22.3845042 20.6539087,23.996542 17.9988767,23.996542 C15.3421308,23.996542 12.9253489,22.3845042 11.5318428,19.6891077 Z" id="形状" fill="#FFFFFF" fill-rule="nonzero"></path>
                </g>
            </g>
        </g>
    </g>
</svg>