<?xml version="1.0" encoding="UTF-8"?>
<svg width="36px" height="36px" viewBox="0 0 36 36" version="1.1" xmlns="http://www.w3.org/2000/svg" xmlns:xlink="http://www.w3.org/1999/xlink">
    <!-- Generator: Sketch 60 (88103) - https://sketch.com -->
    <title>财务管理_选中</title>
    <desc>Created with Sketch.</desc>
    <g id="页面-1" stroke="none" stroke-width="1" fill="none" fill-rule="evenodd">
        <g id="平台侧边导航" transform="translate(-43.000000, -360.000000)">
            <rect fill="#2A2B3D" x="0" y="0" width="1920" height="1080"></rect>
            <rect id="矩形备份-6" stroke="#191B28" fill="#242635" x="0.5" y="0.5" width="231" height="1079"></rect>
            <g id="选中备份-5" transform="translate(0.000000, 336.000000)" fill="#313447" stroke="#313447">
                <rect id="矩形备份-8" x="0.5" y="0.5" width="231" height="83"></rect>
            </g>
            <g id="财务管理_选中-2" transform="translate(43.000000, 360.000000)">
                <g id="财务管理_选中">
                    <rect id="bg" fill="#313447" x="0" y="0" width="36" height="36"></rect>
                    <path d="M3.72384016,11.6926431 C2.97941757,11.6926431 2.48198438,12.1894535 2.48198438,12.9355346 L2.48198438,29.094855 C2.48198438,29.839205 2.97941757,30.3377464 3.72384016,30.3377464 L27.3104639,30.3377464 C28.0548865,30.3377464 28.5523197,29.8409361 28.5523197,29.094855 L28.5523197,12.9355346 C28.5523197,12.1911845 28.0548866,11.6926431 27.3104639,11.6926431 L3.72384016,11.6926431 Z M3.72384016,9.20686008 L27.3104639,9.20686008 C29.4211006,9.20686008 31.0343041,10.8236576 31.0343041,12.9355346 L31.0343041,29.094855 C31.0343041,31.2067319 29.4211006,32.8235294 27.3104639,32.8235294 L3.72384016,32.8235294 C1.6132035,32.8235294 0,31.2084629 0,29.094855 L0,12.9355346 C0,10.8236577 1.61320347,9.20686008 3.72384016,9.20686008 Z M7.44768028,6.72107711 C6.7032577,6.72107711 6.2058245,6.22426673 6.2058245,5.47818563 C6.2058245,4.73383558 6.7032577,4.23529412 7.44768028,4.23529412 L32.2761599,4.23529412 C34.3867965,4.23529412 36,5.85036062 36,7.96396859 L36,26.6073409 C36,27.3551531 35.504294,27.8519635 34.7598714,27.8519635 C34.0137216,27.8519635 33.5162884,27.3551531 33.5162884,26.609072 L33.5162884,7.96569964 C33.5162884,7.2178875 33.0205825,6.72107711 32.2761599,6.72107711 L7.44768028,6.72107711 Z M13.655232,20.6421542 L10.5514561,17.5349255 C10.3139598,17.3081855 10.1795471,16.9938102 10.1795471,16.6650745 C10.1795471,16.3363388 10.3139598,16.0219636 10.5514561,15.7952236 C10.7779948,15.5571026 11.0919543,15.4223558 11.420237,15.4223558 C11.7485197,15.4223558 12.0624793,15.5571026 12.2890179,15.7952236 L14.8970878,18.4056419 L17.5034304,15.7952236 C17.729969,15.5571026 18.0439286,15.4223558 18.3722113,15.4223558 C18.700494,15.4223558 19.0144536,15.5571026 19.2409922,15.7952236 C19.4784886,16.0219636 19.6129013,16.3363388 19.6129013,16.6650745 C19.6129013,16.9938102 19.4784886,17.3081855 19.2409922,17.5349255 L16.1372163,20.6421542 L16.1372163,21.637506 L18.6209279,21.637506 C19.3653505,21.637506 19.8627837,22.1343164 19.8627837,22.8803975 C19.8627837,23.6247476 19.3653505,24.123289 18.6192007,24.123289 L16.1389435,24.123289 L16.1389435,26.609072 C16.1389435,27.353422 15.6432375,27.8519635 14.8970878,27.8519635 C14.1543924,27.8519635 13.6569592,27.3551531 13.6569592,26.609072 L13.6569592,24.123289 L11.1715204,24.123289 C10.4270979,24.123289 9.93139183,23.6247476 9.93139183,22.8803975 C9.93139183,22.1343164 10.4270978,21.637506 11.1715204,21.637506 L13.655232,21.637506 L13.655232,20.6421542 L13.655232,20.6421542 Z" id="形状" fill="#FFFFFF" fill-rule="nonzero"></path>
                </g>
            </g>
        </g>
    </g>
</svg>