<svg xmlns="http://www.w3.org/2000/svg" width="72" height="60" viewBox="0 0 72 60">
  <defs>
    <style>
      .cls-1 {
        opacity: 0.15;
      }

      .cls-2 {
        fill: #fff;
      }
    </style>
  </defs>
  <g id="游客人数_创客人数" data-name="游客人数/创客人数" class="cls-1" transform="translate(-149.865 -164.294)">
    <path id="路径_21" data-name="路径 21" class="cls-2" d="M264.258,199.165a17.436,17.436,0,1,0-17.247-17.435A17.342,17.342,0,0,0,264.258,199.165Zm0-4.548a12.888,12.888,0,1,1,12.748-12.887,12.818,12.818,0,0,1-12.748,12.887Zm21.987,3.184a16.744,16.744,0,0,0,2.83-31.08,2.49,2.49,0,0,0-3.345,1.167,2.542,2.542,0,0,0,1.155,3.381,11.667,11.667,0,0,1-1.97,21.66,2.53,2.53,0,0,0-1.745,3.108A2.5,2.5,0,0,0,286.245,197.8Z" transform="translate(-87.516)"/>
    <path id="路径_22" data-name="路径 22" class="cls-2" d="M177.421,505.628c-15.419,0-26.39,7.37-27.527,20.419a7.6,7.6,0,0,0,2.1,5.911,8.2,8.2,0,0,0,5.93,2.512H196.6a8.49,8.49,0,0,0,6.189-2.652,7.873,7.873,0,0,0,2.115-6.205c-1.339-12.844-12.2-19.985-27.487-19.985Zm22.979,20.79a3.734,3.734,0,0,1-3.8,3.666H157.918a3.566,3.566,0,0,1-2.58-1.094,3.309,3.309,0,0,1-.912-2.572c.91-10.485,9.718-16.4,22.994-16.4,13.165,0,21.882,5.732,22.959,16.037a2.945,2.945,0,0,1,.02.365Z" transform="translate(0 -310.176)"/>
    <path id="路径_23" data-name="路径 23" class="cls-2" d="M26.681,21.365a7.976,7.976,0,0,0-.045-.854C25.413,8.331,16.17,1.064,2.727.008a2.527,2.527,0,1,0-.4,5.038c11.2.879,18.325,6.479,19.28,15.97a3.426,3.426,0,0,1,.02.349,2.527,2.527,0,0,0,5.054,0Z" transform="translate(196.792 192.227) rotate(20)"/>
  </g>
</svg>
