<svg xmlns="http://www.w3.org/2000/svg" width="20.002" height="20" viewBox="0 0 20.002 20">
  <defs>
    <style>
      .cls-1 {
        fill: #ccccd2;
      }

      .cls-2 {
        fill: none;
      }
    </style>
  </defs>
  <g id="银行卡" transform="translate(-484 -913)">
    <g id="银行卡号" transform="translate(222 529.305)">
      <path id="身份证" class="cls-1" d="M18.5,68.166H1.5v8a1.1,1.1,0,0,0,.366.808,1.313,1.313,0,0,0,.884.335h14.5a1.312,1.312,0,0,0,.884-.335,1.1,1.1,0,0,0,.366-.808v-8Zm-17-1.371h17v-1.6a1.1,1.1,0,0,0-.366-.808,1.312,1.312,0,0,0-.884-.335H2.751a1.313,1.313,0,0,0-.884.335,1.1,1.1,0,0,0-.366.808v1.6ZM15.752,74.11a.689.689,0,1,1,0,1.372h-2.5a.689.689,0,1,1,0-1.372Zm-13-11.43h14.5A2.64,2.64,0,0,1,20,65.195V76.167a2.64,2.64,0,0,1-2.75,2.515H2.75A2.64,2.64,0,0,1,0,76.167V65.195A2.64,2.64,0,0,1,2.75,62.68Zm0,0" transform="translate(262 323.015)"/>
    </g>
    <rect id="矩形_320" data-name="矩形 320" class="cls-2" width="20" height="20" transform="translate(484 913)"/>
  </g>
</svg>
