<svg xmlns="http://www.w3.org/2000/svg" width="20" height="20" viewBox="0 0 20 20">
  <defs>
    <style>
      .cls-1 {
        fill: #ccccd2;
      }

      .cls-2 {
        fill: none;
      }
    </style>
  </defs>
  <g id="身份证" transform="translate(-404 -907)">
    <g id="身份证-2" data-name="身份证" transform="translate(142 522)">
      <g id="组_273" data-name="组 273" transform="translate(262 264.714)">
        <path id="路径_39" data-name="路径 39" class="cls-1" d="M17.07,124.523a1.5,1.5,0,0,1,1.563,1.414v8.7a1.5,1.5,0,0,1-1.562,1.414H2.93a1.5,1.5,0,0,1-1.562-1.414v-8.7a1.5,1.5,0,0,1,1.562-1.414H17.07m0-1.237H2.93A2.8,2.8,0,0,0,0,125.937v8.7a2.8,2.8,0,0,0,2.93,2.651H17.07A2.8,2.8,0,0,0,20,134.635v-8.7A2.8,2.8,0,0,0,17.07,123.286Z"/>
        <path id="路径_40" data-name="路径 40" class="cls-1" d="M569.957,279.508a1.335,1.335,0,1,1-1.335,1.335,1.336,1.336,0,0,1,1.335-1.335m0-1.2a2.531,2.531,0,1,0,2.531,2.531A2.531,2.531,0,0,0,569.957,278.311Z" transform="translate(-555.781 -152.232)"/>
        <path id="路径_41" data-name="路径 41" class="cls-1" d="M125.758,342.061a.661.661,0,0,1-.709-.6,2.324,2.324,0,0,0-4.582,0,.719.719,0,0,1-1.418,0,3.763,3.763,0,0,1,7.419,0A.661.661,0,0,1,125.758,342.061Zm-8.227-5.365h-6.321a.607.607,0,1,1,0-1.2h6.321a.607.607,0,1,1,0,1.2Zm0,2.573h-6.321a.607.607,0,1,1,0-1.2h6.321a.607.607,0,1,1,0,1.2Zm-1.884,2.573h-4.437a.607.607,0,1,1,0-1.2h4.437a.607.607,0,1,1,0,1.2Z" transform="translate(-108.611 -208.349)"/>
      </g>
    </g>
    <rect id="矩形_319" data-name="矩形 319" class="cls-2" width="20" height="20" transform="translate(404 907)"/>
  </g>
</svg>
