<?xml version="1.0" standalone="no"?><!DOCTYPE svg PUBLIC "-//W3C//DTD SVG 1.1//EN" "http://www.w3.org/Graphics/SVG/1.1/DTD/svg11.dtd"><svg t="1598879085996" class="icon" viewBox="0 0 1024 1024" version="1.1" xmlns="http://www.w3.org/2000/svg" p-id="21141" xmlns:xlink="http://www.w3.org/1999/xlink" width="200" height="200"><defs><style type="text/css"></style></defs><path d="M626.72 560.192c106.112-43.968 179.264-147.456 179.264-268.032C807.456 131.904 674.08 0 511.968 0 349.92 0 216.544 131.904 216.544 292.16c0 120.576 74.56 224.064 179.264 268.032C186.4 611.264 30.112 799.936 30.112 1024h60.224c0-224.064 195.072-421.632 421.632-421.632 226.624 0 421.696 197.568 421.696 421.632h60.224c0-224.064-156.352-412.736-367.168-463.808zM271.008 301.184c0-121.984 117.632-240.96 240.96-240.96 123.392 0 240.96 118.976 240.96 240.96 0 121.984-117.568 240.96-240.96 240.96-123.328 0-240.96-118.976-240.96-240.96z" p-id="21142"></path></svg>
