<svg xmlns="http://www.w3.org/2000/svg" width="16" height="16" viewBox="0 0 16 16">
  <defs>
    <style>
      .cls-1 {
        fill: none;
      }

      .cls-2 {
        fill: #9048de;
      }
    </style>
  </defs>
  <g id="学历" transform="translate(0 1)">
    <rect id="矩形_316" data-name="矩形 316" class="cls-1" width="16" height="16" transform="translate(0 -1)"/>
    <g id="组_599" data-name="组 599">
      <path id="路径_27" data-name="路径 27" class="cls-2" d="M253.221,566.162V560.9l-5.484,2.618a.15.15,0,0,1-.168,0l-5.265-2.579v5.233c0,.413,2.445,1.78,5.458,1.78s5.458-1.364,5.458-1.783Z" transform="translate(-239.789 -553.944)"/>
      <path id="路径_28" data-name="路径 28" class="cls-2" d="M140.6,261.443h-.079v-5.361l.053-.025a.274.274,0,0,0,0-.44l-7.668-3.8a.151.151,0,0,0-.171,0l-7.889,3.807a.274.274,0,0,0,0,.44l7.668,3.8a.151.151,0,0,0,.171,0l7.169-3.46.1-.045-.008,5.085h-.079a.147.147,0,0,0-.137.155v1.732a.147.147,0,0,0,.137.155h.736a.147.147,0,0,0,.137-.155V261.6A.147.147,0,0,0,140.6,261.443Z" transform="translate(-124.736 -251.79)"/>
    </g>
  </g>
</svg>
