<?xml version="1.0" standalone="no"?><!DOCTYPE svg PUBLIC "-//W3C//DTD SVG 1.1//EN" "http://www.w3.org/Graphics/SVG/1.1/DTD/svg11.dtd"><svg t="1599837818067" class="icon" viewBox="0 0 1024 1024" version="1.1" xmlns="http://www.w3.org/2000/svg" p-id="19432" xmlns:xlink="http://www.w3.org/1999/xlink" width="200" height="200"><defs><style type="text/css"></style></defs><path d="M364.032 97.792C165.376 97.792 2.56 230.4 2.56 403.456c0 97.28 53.76 178.176 144.384 242.176l-36.864 109.568 129.024-65.024c40.96 13.312 83.456 19.968 125.952 20.48h-1.024c10.752 0 21.504 0 31.744-1.024-6.656-25.088-10.24-50.688-10.24-76.288 0-156.672 133.632-286.208 306.688-286.208 11.264 0 23.04 1.536 33.792 4.096-29.696-148.992-186.368-253.44-361.984-253.44z m-72.704 199.68c-1.024 24.064-20.992 43.008-45.056 42.496-26.624 0-54.784-16.896-54.784-44.544 0-28.16 28.16-44.544 54.784-44.544h3.584c23.552 1.024 42.496 20.992 41.472 44.544v2.048z m251.904 2.56c-1.536 23.552-22.016 40.96-45.056 39.424-26.624 0-52.224-16.384-52.224-44.544S471.04 250.88 498.176 250.88h6.656c23.04 1.536 40.448 21.504 38.912 44.544-0.512 1.536-0.512 3.072-0.512 4.608zM364.544 710.144z" fill="#02BB29" p-id="19433"></path><path d="M1021.44 628.736c0-145.408-145.408-262.144-306.688-262.656-171.008 0-305.664 117.248-305.664 262.144 0 145.408 135.168 262.144 305.664 262.144 36.864 0 72.704-11.776 109.568-18.944l96.768 54.784-25.6-91.648c71.68-51.712 125.952-124.416 125.952-205.824z m-406.016-47.104c-18.432-0.512-33.792-14.848-35.84-33.28 0.512-19.456 15.872-35.84 35.328-36.864h0.512c26.112 0 45.568 16.384 45.568 36.864 0 16.384-18.432 33.28-45.568 33.28z m199.68-0.512c-18.432 0-34.304-14.336-35.84-33.28 0-19.968 15.872-36.352 35.84-36.864 25.6 0 44.544 16.384 44.544 36.864 0 16.896-18.944 33.28-44.544 33.28z" fill="#02BB29" p-id="19434"></path></svg>